<?xml version="1.0" ?><svg viewBox="0 0 64 64" xmlns="http://www.w3.org/2000/svg"><defs><style>.cls-1{fill:#efc89d;}.cls-2{fill:#ebb87f;}.cls-3{fill:#f6e782;}.cls-4{fill:#748a95;}.cls-5{fill:#f5d96d;}.cls-6{fill:#f0f4f7;}.cls-7{fill:#e0e9ee;}.cls-8{fill:#617880;}.cls-9{fill:#d0e1e8;}.cls-10{fill:#172335;}</style></defs><g id="Gnome"><path class="cls-1" d="M27.57,40.85v3.68l-1.92,1.11L32,51.58l6.35-5.94-1.92-1.11V40.85Z" id="path189450-3-1-3"/><path class="cls-2" d="M34,40.85v5l1.91,1.12.65.38,1.79-1.68-1.92-1.11V40.85Z" id="path198926-6-9-6"/><path class="cls-3" d="M25.65,45.64,20.93,48.4c-.39.23-.78.48-1.15.75l0,4.62L22,56H42l1.73-2.23.48-4.62c-.37-.27-.76-.52-1.15-.75l-4.72-2.76-1.87,2.65L32,49.16l-4.48-.87Z" id="path123162-4-0-7-4-1"/><path class="cls-4" d="M19.78,49.15a8.54,8.54,0,0,0-3.62,5.2A1.38,1.38,0,0,0,17.51,56H22A12.94,12.94,0,0,0,19.78,49.15Zm24.44,0A12.94,12.94,0,0,0,42,56h4.48a1.38,1.38,0,0,0,1.35-1.65A8.54,8.54,0,0,0,44.22,49.15Z" id="path115119-7-3-7-0"/><path class="cls-5" d="M38.35,45.64,37,47.57l3.64,2.13a12.6,12.6,0,0,1,1.15.75,10.42,10.42,0,0,1,2.1,2l.34-3.28c-.37-.27-.76-.52-1.15-.75Z" id="path198928-5-8-6"/><path class="cls-6" d="M25.65,45.64V49a1.47,1.47,0,0,0,1.86,1.41L32,49.16ZM32,49.16l4.49,1.23A1.47,1.47,0,0,0,38.35,49V45.64Z" id="path116882-26-6-4-3"/><path class="cls-7" d="M38.35,45.64,36,47l2.39,1.39Z" id="path198930-2-5-2"/><path class="cls-8" d="M44.22,49.15A12,12,0,0,0,43,51.44a7.92,7.92,0,0,1,2.43,4.21,1.4,1.4,0,0,1,0,.35h1.06a1.38,1.38,0,0,0,1.35-1.65A8.54,8.54,0,0,0,44.22,49.15Z" id="path198932-9-0-0"/><path class="cls-1" d="M42.31,29c0-2.33,0-4.76,0-4.76s-3-3.65-10.29-3.65-10.29,3.65-10.29,3.65,0,2.43,0,4.76c0,0,.42,4.59,2.38,5.67,4.35,2.39,12.15,2.21,16.09,0C42.09,33.53,42.31,29,42.31,29Z" id="path195145-6"/><path class="cls-2" d="M39.72,22.89s0,3.73,0,6.06c0,2,0,3.9,0,4a10.19,10.19,0,0,1-.19,1.93c.2-.09.4-.19.58-.29C42.09,33.53,42.31,29,42.31,29c0-2.33,0-4.76,0-4.76Z" id="path148934"/><path class="cls-6" d="M21.69,29c0,2,0,3.9,0,4a10.34,10.34,0,0,0,20.68,0c0-.13,0-2.06,0-4-1.05,5.51-4.32,2.38-8.23,1.33H29.92C26,31.33,22.74,34.46,21.69,29Z" id="path185151-8"/><path class="cls-9" d="M35.48,35.25a3.48,3.48,0,1,1-7,0Z" id="path185496-9"/><path class="cls-7" d="M42.31,29c-.46,2.43-1.36,3.18-2.55,3.17,0,.17,0,.83,0,.86a10.33,10.33,0,0,1-9.06,10.25,9.22,9.22,0,0,0,1.29.09A10.34,10.34,0,0,0,42.34,33C42.34,32.85,42.32,30.92,42.31,29Z" id="path148936"/><path class="cls-6" d="M42.82,22.4l-2.7-1-18.93.92V20.06c0-4.58,5.82-9.32,8.92-11.51a3.54,3.54,0,0,1,3.78,0c3.1,2.19,8.93,6.93,8.93,11.51V22.4Z" id="path194662-0"/><path class="cls-2" d="M34.12,30A2.12,2.12,0,1,1,32,27.86,2.12,2.12,0,0,1,34.12,30Z" id="path185044-7"/><path class="cls-7" d="M32,8a3.26,3.26,0,0,0-1.89.55L30,8.62c3.13,2.23,8.81,6.91,8.81,11.44v1.35l1.32-.06,2.68,1V20.06c0-4.58-5.82-9.32-8.92-11.51A3.26,3.26,0,0,0,32,8Z" id="path157512"/><path class="cls-7" d="M32,18.84a35.19,35.19,0,0,0-12,2,2,2,0,0,0-1,2.44,1.65,1.65,0,0,0,2.17,1.15A31.32,31.32,0,0,1,32,22.65a31.32,31.32,0,0,1,10.85,1.74A1.65,1.65,0,0,0,45,23.24a2,2,0,0,0-1-2.43A35,35,0,0,0,32,18.84Z" id="path344568-2"/><path class="cls-9" d="M39.75,19.62l.08,0A2.28,2.28,0,0,1,41,22.46a2.13,2.13,0,0,1-.81,1.13,20.65,20.65,0,0,1,2.66.8A1.65,1.65,0,0,0,45,23.24a2,2,0,0,0-1-2.43A26.89,26.89,0,0,0,39.75,19.62Z" id="path183757"/><path class="cls-10" d="M20.43,47.54a10.22,10.22,0,0,0-5.25,6.62,2.37,2.37,0,0,0,.49,2,2.4,2.4,0,0,0,1.84.87h29a2.37,2.37,0,0,0,2.33-2.84,10.26,10.26,0,0,0-5.25-6.62L37.43,44v-1a11.35,11.35,0,0,0,5.91-10c0-.22,0-5.09,0-7.49h.13a2.53,2.53,0,0,0,1.07-.24A2.79,2.79,0,0,0,46,23.55a3,3,0,0,0-1.6-3.67s-.24-.1-.58-.21c-.3-4.83-5.92-9.53-9.32-11.94a4.56,4.56,0,0,0-4.94,0c-3.4,2.41-9,7.1-9.32,11.93l-.58.22A2.94,2.94,0,0,0,18,23.54a2.81,2.81,0,0,0,1.47,1.72,2.5,2.5,0,0,0,1.2.23c0,2.39,0,7.27,0,7.49a11.35,11.35,0,0,0,5.91,10v1Zm6.22-.2,2.72,1.5-2.12.59a.48.48,0,0,1-.41-.08.47.47,0,0,1-.19-.37Zm-2,0V49a2.45,2.45,0,0,0,2.47,2.46,2.41,2.41,0,0,0,.65-.08L31,50.47V55H22.93a14.3,14.3,0,0,0-1.78-5.56l.29-.18Zm-7.43,7.48a.34.34,0,0,1-.08-.31,7,7,0,0,1,2.39-3.91A12.11,12.11,0,0,1,20.91,55h-3.4A.36.36,0,0,1,17.22,54.86Zm29.64-.31a.34.34,0,0,1-.08.31.36.36,0,0,1-.29.14h-3.4a12.11,12.11,0,0,1,1.38-4.36A7,7,0,0,1,46.86,54.55Zm-4-5.1A14.22,14.22,0,0,0,41.07,55H33V50.47l3.23.89A2.46,2.46,0,0,0,39.34,49v-1.6l3.22,1.88Zm-8.22-.61,2.71-1.5V49a.47.47,0,0,1-.18.37.48.48,0,0,1-.4.08Zm.45-19.28a3.11,3.11,0,0,0-6.16,0c-.7.23-1.38.49-2,.73-1.34.55-2.61,1.06-3.23.72-.44-.23-.79-1-1-2.17,0-1.51,0-3,0-3.92A33.36,33.36,0,0,1,32,23.65a33.36,33.36,0,0,1,9.29,1.27c0,.88,0,2.41,0,3.92-.24,1.18-.59,1.94-1,2.17-.62.35-1.89-.17-3.23-.72C36.46,30.05,35.78,29.79,35.08,29.56Zm-4.2.42a1.12,1.12,0,1,1,2.24,0h0A1.13,1.13,0,0,1,32,31.11,1.13,1.13,0,0,1,30.88,30ZM30.69,9.36a2.58,2.58,0,0,1,2.63,0C35.67,11,40.88,15.12,41.7,19a39.76,39.76,0,0,0-19.39,0C23.12,15.11,28.33,11,30.69,9.36ZM20.35,23.45a.83.83,0,0,1-.42-.52,1,1,0,0,1,.44-1.2A34.59,34.59,0,0,1,32,19.84a34.05,34.05,0,0,1,11.63,1.9,1,1,0,0,1,.44,1.2.84.84,0,0,1-.42.51.51.51,0,0,1-.42,0A32.28,32.28,0,0,0,32,21.65a32.28,32.28,0,0,0-11.23,1.81A.48.48,0,0,1,20.35,23.45ZM22.66,33s0-.13,0-.27l.08.06a3,3,0,0,0,1.45.35,9.87,9.87,0,0,0,3.49-1c.53-.21,1.07-.42,1.61-.61A3.14,3.14,0,0,0,32,33.11a3.08,3.08,0,0,0,2.69-1.58c.55.19,1.09.4,1.62.61a9.87,9.87,0,0,0,3.49,1,3,3,0,0,0,1.45-.35l.08-.06c0,.14,0,.25,0,.27a9.34,9.34,0,0,1-18.68,0ZM32,44.32a11.09,11.09,0,0,0,3.43-.54v.75a1,1,0,0,0,.5.86l.39.23L32,48l-4.32-2.4.39-.23a1,1,0,0,0,.5-.86v-.75A11.09,11.09,0,0,0,32,44.32Z"/><path class="cls-10" d="M36.48,35.25a1,1,0,0,0-1-1h-7a1,1,0,0,0-1,1,4.48,4.48,0,1,0,9,0Zm-6.75,1h4.54a2.48,2.48,0,0,1-4.54,0Z"/></g></svg>