<?xml version="1.0" ?><svg viewBox="0 0 64 64" xmlns="http://www.w3.org/2000/svg"><defs><style>.cls-1{fill:#748a95;}.cls-2{fill:#f6e782;}.cls-3{fill:#efc89d;}.cls-4{fill:#ebb87f;}.cls-5{fill:#617880;}.cls-6{fill:#f5d96d;}.cls-7{fill:#172335;}</style></defs><g id="Viking"><path class="cls-1" d="M24.35,13.42S21.9,11,20,8.79c-1.07-1.23-2-1-2.07.61-.19,6.63,2.44,10,2.44,10l4.17-3Z" id="path30828-3"/><path class="cls-1" d="M39.65,13.42S42.1,11,44,8.79c1.07-1.23,2-1,2.07.61.19,6.63-2.44,10-2.44,10l-4.17-3Z" id="path31144-2"/><path class="cls-2" d="M24.31,44.46l-.72-1.23A2.62,2.62,0,0,0,20,42.31l-4.32,2.58a2.73,2.73,0,0,0-1,3.67l1,1.85,6.19-1.58Z" id="path63663-9-6-1-3"/><path class="cls-2" d="M39.69,44.46l.71-1.23A2.63,2.63,0,0,1,44,42.31l4.32,2.58a2.73,2.73,0,0,1,1,3.67l-1,1.85L42,48.76Z" id="path66457-2-4-5-6"/><path class="cls-3" d="M23.63,47.06l.33-2.4,3-1.74V40.17h10.1v2.75l3,1.74.33,2.41,4.55.45c2.52,1.54,4.57,3.7,5.14,6.6A1.58,1.58,0,0,1,48.52,56H40.26L32,53l-8.26,3H15.48a1.58,1.58,0,0,1-1.54-1.88c.57-2.9,2.62-5.06,5.14-6.6Z" id="path561157-7"/><path class="cls-4" d="M33.14,40.17v3.71l3,1.75L41,48.48a10.29,10.29,0,0,1,5.14,6.61,1.56,1.56,0,0,1-.1.91h2.47a1.58,1.58,0,0,0,1.54-1.88c-.57-2.9-2.62-5.06-5.14-6.6l-4.55-.45L40,44.66l-3-1.74V40.17Z" id="path570391-5"/><path class="cls-1" d="M40.26,56s-.17-4.19,4.66-8.48L40,44.67a11.76,11.76,0,0,1-16.06,0l-4.89,2.85C23.91,51.81,23.74,56,23.74,56Z" id="path34202-7-1-3"/><path class="cls-5" d="M40,44.67a11.74,11.74,0,0,1-2.5,1.78l3.47,2a14.55,14.55,0,0,1,1.79,1.29,17.37,17.37,0,0,1,2.12-2.25Z" id="path570393-5"/><path class="cls-3" d="M20.84,27.79a19.6,19.6,0,0,0,1,5.44C23.66,37.85,27.52,42,32,42s8.34-4.09,10.19-8.72a19.53,19.53,0,0,0,1-5.44L32,25Z" id="path30474-6"/><path class="cls-2" d="M19.9,22.65A12,12,0,0,1,29,11.1H35A12,12,0,0,1,44.1,22.65L32,25.3Z" id="path31787-6"/><path class="cls-6" d="M44.1,22.65A12,12,0,0,0,35,11.1H31A12,12,0,0,1,40.1,22.65Z" id="path39699"/><path class="cls-1" d="M30.1,10A1.07,1.07,0,0,0,29,11.1v7.49A4.06,4.06,0,0,1,25,22.65H19.9a.85.85,0,0,0-.85.86v3.42a.85.85,0,0,0,.85.86H44.1a.85.85,0,0,0,.85-.86V23.51a.85.85,0,0,0-.85-.86H39A4.06,4.06,0,0,1,35,18.59V11.1A1.07,1.07,0,0,0,33.9,10Z" id="rect25295-1"/><path class="cls-5" d="M30.68,10a1.06,1.06,0,0,1,1.07,1.07v7.49a4.07,4.07,0,0,0,4.07,4.06H39A4.06,4.06,0,0,1,35,18.59V11.1A1.07,1.07,0,0,0,33.9,10Zm10.2,12.62a.85.85,0,0,1,.86.86v3.43a.85.85,0,0,1-.86.85H44.1a.86.86,0,0,0,.86-.85V23.51a.86.86,0,0,0-.86-.86Z" id="path42107"/><path class="cls-4" d="M39.16,27.79a19.53,19.53,0,0,1-1,5.44c-1.57,3.92-4.58,7.46-8.19,8.45A7.9,7.9,0,0,0,32,42c4.48,0,8.34-4.09,10.19-8.72a19.53,19.53,0,0,0,1-5.44Z" id="path46694"/><path class="cls-7" d="M13.49,56.06a2.56,2.56,0,0,0,2,.94h33A2.56,2.56,0,0,0,51,53.93a9.5,9.5,0,0,0-1.56-3.58l.72-1.3a3.71,3.71,0,0,0-1.34-5l-4.33-2.58a3.57,3.57,0,0,0-2.76-.4,3.62,3.62,0,0,0-2.23,1.67l-.21.37-1.28-.75v-1.7a17.45,17.45,0,0,0,5.07-7,17.89,17.89,0,0,0,1-4.81h0A1.85,1.85,0,0,0,46,26.93V23.51a1.85,1.85,0,0,0-.88-1.58,13.06,13.06,0,0,0-.35-2.35c.73-1.14,2.53-4.55,2.36-10.2,0-1.61-.81-2.12-1.27-2.29s-1.43-.25-2.56,1.05c-1.29,1.49-2.86,3.11-3.7,4a13.21,13.21,0,0,0-3.74-1.8A2.08,2.08,0,0,0,33.9,9H30.1a2.08,2.08,0,0,0-1.91,1.27,13.21,13.21,0,0,0-3.74,1.8c-.84-.85-2.41-2.47-3.7-4-1.13-1.29-2.09-1.2-2.56-1S17,7.77,16.92,9.38c-.17,5.65,1.63,9.06,2.36,10.2a13.06,13.06,0,0,0-.35,2.35,1.85,1.85,0,0,0-.88,1.58v3.42a1.85,1.85,0,0,0,1.85,1.86h0a17.89,17.89,0,0,0,1,4.81,17.45,17.45,0,0,0,5.07,7v1.7l-1.28.75-.21-.37a3.62,3.62,0,0,0-2.23-1.67,3.57,3.57,0,0,0-2.76.4L15.14,44a3.71,3.71,0,0,0-1.34,5l.72,1.3A9.5,9.5,0,0,0,13,53.93,2.56,2.56,0,0,0,13.49,56.06ZM15,54.79a.53.53,0,0,1-.12-.47A7.57,7.57,0,0,1,16.48,51h0A11,11,0,0,1,19,48.79,11.84,11.84,0,0,1,22.64,55H15.48A.54.54,0,0,1,15,54.79Zm8.81-8.91a12.7,12.7,0,0,0,16.3,0l3.13,1.83A13.39,13.39,0,0,0,39.34,55H24.66a13.39,13.39,0,0,0-3.94-7.29ZM49,54.79a.54.54,0,0,1-.44.21H41.36A11.84,11.84,0,0,1,45,48.79,11,11,0,0,1,47.51,51h0a7.59,7.59,0,0,1,1.56,3.28A.54.54,0,0,1,49,54.79Zm-7.69-11a1.61,1.61,0,0,1,2.23-.58l4.33,2.59a1.72,1.72,0,0,1,.62,2.33l-.35.64a15.21,15.21,0,0,0-3-2.25L41.06,44.1ZM36,12.46a10.93,10.93,0,0,1,7.08,9.19H39A3.06,3.06,0,0,1,36,18.59Zm8.8-3a2.61,2.61,0,0,1,.29-.29,2,2,0,0,1,0,.28A17.93,17.93,0,0,1,43.79,17a13,13,0,0,0-2.68-3.66C42,12.48,43.48,10.93,44.77,9.44ZM30,11.1A.07.07,0,0,1,30.1,11l3.79.07a.08.08,0,0,1,.08.07v7.42A5.07,5.07,0,0,0,39,23.65H44v3.14H20.05V23.65H25A5.07,5.07,0,0,0,30,18.59Zm-2,1.36v6.13A3.06,3.06,0,0,1,25,21.65H21A10.93,10.93,0,0,1,28,12.46Zm-9.11-3a2,2,0,0,1,0-.28,2.61,2.61,0,0,1,.29.29c1.29,1.49,2.78,3,3.66,3.93A13,13,0,0,0,20.21,17,18,18,0,0,1,18.92,9.43Zm3.82,23.43a16.22,16.22,0,0,1-.81-4.07H42.07a16.22,16.22,0,0,1-.81,4.07C39.65,36.89,36.17,41,32,41S24.35,36.89,22.74,32.86Zm4.71,10.92a1,1,0,0,0,.5-.86v-1a8.55,8.55,0,0,0,8.1,0v1a1,1,0,0,0,.5.86l1.74,1a10.72,10.72,0,0,1-12.58,0Zm-11.28,2,4.33-2.59A1.65,1.65,0,0,1,21.73,43a1.6,1.6,0,0,1,1,.76l.21.36-4.06,2.37a15.21,15.21,0,0,0-3,2.25l-.35-.64A1.72,1.72,0,0,1,16.17,45.75Z"/><circle class="cls-7" cx="27.47" cy="25.19" r="1"/><circle class="cls-7" cx="32" cy="25.19" r="1"/><circle class="cls-7" cx="36.53" cy="25.19" r="1"/><circle class="cls-7" cx="41.06" cy="25.19" r="1"/><circle class="cls-7" cx="22.94" cy="25.19" r="1"/><path class="cls-7" d="M32,21.09a1,1,0,1,0-1-1A1,1,0,0,0,32,21.09Z"/><circle class="cls-7" cx="32" cy="15.07" r="1"/></g></svg>