<?xml version="1.0" ?><svg viewBox="0 0 64 64" xmlns="http://www.w3.org/2000/svg"><defs><style>.cls-1{fill:#efc89d;}.cls-2{fill:#ebb87f;}.cls-3{fill:#aaddb4;}.cls-4{fill:#748a95;}.cls-5{fill:#92d39d;}.cls-6{fill:#617880;}.cls-7{fill:#f6e782;}.cls-8{fill:#172335;}</style></defs><g id="Scarecrow"><path class="cls-1" d="M27.84,41.78v3.46l-1.8,1,6,5.57,6-5.57-1.8-1V41.78Z" id="path189450-3-1"/><path class="cls-2" d="M33.87,41.78v4.68l1.8,1,.61.36L38,46.29l-1.8-1V41.78Z" id="path198926-6-9"/><path class="cls-3" d="M26,46.29l-4.43,2.58c-.37.22-.73.46-1.08.71l0,4.34L22.6,56H41.4L43,53.92l.45-4.34c-.35-.25-.71-.49-1.08-.71L38,46.29l-1.75,2.48L32,49.59l-4.21-.82Z" id="path123162-4-0-7-4"/><path class="cls-4" d="M20.53,49.58a8,8,0,0,0-3.4,4.88A1.3,1.3,0,0,0,18.4,56h4.2A12.13,12.13,0,0,0,20.53,49.58Zm22.94,0A12.13,12.13,0,0,0,41.4,56h4.2a1.3,1.3,0,0,0,1.27-1.55A8,8,0,0,0,43.47,49.58Z" id="path115119-7-3-7"/><path class="cls-5" d="M38,46.29,36.68,48.1l3.42,2c.37.22.73.46,1.08.71a9.69,9.69,0,0,1,2,1.86l.32-3.08c-.35-.25-.71-.49-1.08-.71Z" id="path198928-5-8"/><path class="cls-4" d="M26,46.29v3.13a1.37,1.37,0,0,0,1.74,1.32L32,49.59Zm6,3.3,4.22,1.15A1.37,1.37,0,0,0,38,49.42V46.29Z" id="path116882-26-6-4"/><path class="cls-6" d="M38,46.29l-2.25,1.24L38,48.84Z" id="path198930-2-5"/><path class="cls-6" d="M43.47,49.58a10.3,10.3,0,0,0-1.16,2.15,7.45,7.45,0,0,1,2.27,4,.92.92,0,0,1,0,.33h1a1.3,1.3,0,0,0,1.27-1.55A8,8,0,0,0,43.47,49.58Z" id="path198932-9-0"/><path class="cls-1" d="M41.66,33.5c0,.3,0,.6,0,.9a9.7,9.7,0,0,1-19.4,0c0-.3,0-.6,0-.9L32,31.82Z" id="path171095-3"/><path class="cls-3" d="M37.65,8.07a1.14,1.14,0,0,0-.33.08L33.1,10.07a10,10,0,0,0-5,4.91L23.6,24.71,32,27l8.38-2.29-4.45-9.43a3.07,3.07,0,0,1,.52-3.38l2-2.18A1,1,0,0,0,37.65,8.07Z" id="rect49460-5-6-2"/><path class="cls-4" d="M23.6,24.71l-2.21,4.76L32,31.36l10.61-1.89-2.24-4.76Z" id="path54734-5-1-8"/><path class="cls-7" d="M34.37,27.09A2.38,2.38,0,1,1,32,24.71,2.39,2.39,0,0,1,34.37,27.09Z" id="path54838-4-0-9"/><path class="cls-3" d="M17.66,32.15a4,4,0,0,1,3.8-2.68H42.54a4,4,0,0,1,3.8,2.68,1.08,1.08,0,0,1-1.14,1.34H18.8A1.08,1.08,0,0,1,17.66,32.15Z" id="rect40308-61-6-7"/><path class="cls-5" d="M38.83,29.47a4,4,0,0,1,3.8,2.68,1.07,1.07,0,0,1-1.14,1.34H45.2a1.07,1.07,0,0,0,1.14-1.34,4,4,0,0,0-3.8-2.68Z" id="path82078-3-3"/><path class="cls-5" d="M40.37,24.71l-4.45-9.43a3.07,3.07,0,0,1,.52-3.38l2-2.18a1,1,0,0,0-.64-1.65h-.16a1.14,1.14,0,0,0-.33.08L35,9.21a1,1,0,0,1-.25.51l-2,2.18a3.05,3.05,0,0,0-.52,3.38l4.44,9.43Z" id="path84713-2-6"/><path class="cls-6" d="M42.61,29.47l-2.24-4.76H36.66l2.25,4.76Z" id="path84715-0-1"/><path class="cls-2" d="M37.66,33.5c0,.3,0,.6,0,.9A9.72,9.72,0,0,1,30,43.9a10.12,10.12,0,0,0,2,.2,9.7,9.7,0,0,0,9.7-9.7c0-.3,0-.6,0-.9Z" id="path126228"/><path class="cls-8" d="M21.11,48a9.69,9.69,0,0,0-5,6.26,2.28,2.28,0,0,0,.47,1.9A2.31,2.31,0,0,0,18.4,57H45.6a2.31,2.31,0,0,0,1.78-.84,2.28,2.28,0,0,0,.47-1.9,9.67,9.67,0,0,0-5-6.26l-5.73-3.35v-.89a10.72,10.72,0,0,0,5.54-9.26h2.54a2.25,2.25,0,0,0,1.84-.93,1.91,1.91,0,0,0,.24-1.75,5,5,0,0,0-4-3.3L36.84,14.81a2.08,2.08,0,0,1,.35-2.29l2-2.18a2,2,0,0,0-2.29-3.16L32.69,9.1a11.1,11.1,0,0,0-5.47,5.42l-6.53,14a5,5,0,0,0-4,3.3,1.91,1.91,0,0,0,.24,1.75,2.25,2.25,0,0,0,1.84.93H21.3a10.72,10.72,0,0,0,5.54,9.26v.89ZM27,48l2.33,1.29-1.85.51a.36.36,0,0,1-.33-.07.36.36,0,0,1-.15-.29ZM25,48v1.39A2.33,2.33,0,0,0,26,51.3a2.3,2.3,0,0,0,1.44.49,2.72,2.72,0,0,0,.63-.08L31,50.9V55H23.54a13.62,13.62,0,0,0-1.64-5.14C22.62,49.43,23.88,48.71,25,48ZM18.17,54.9a.27.27,0,0,1-.06-.24,6.48,6.48,0,0,1,2.17-3.59A11.36,11.36,0,0,1,21.52,55H18.4A.29.29,0,0,1,18.17,54.9Zm27.72-.24a.27.27,0,0,1-.06.24.29.29,0,0,1-.23.11H42.48a11.36,11.36,0,0,1,1.24-3.94A6.48,6.48,0,0,1,45.89,54.66ZM42.1,49.87A13.62,13.62,0,0,0,40.46,55H33V50.9l3,.81a2.72,2.72,0,0,0,.63.08A2.3,2.3,0,0,0,38,51.3,2.33,2.33,0,0,0,39,49.42V48C39.94,48.61,41.39,49.44,42.1,49.87Zm-7.47-.6L37,48v1.44a.36.36,0,0,1-.15.29.36.36,0,0,1-.33.07ZM24.22,25.7h4.69a3.21,3.21,0,0,0-.31,1.38,3.36,3.36,0,0,0,.3,1.39h-6Zm6.38,1.38A1.39,1.39,0,1,1,32,28.47,1.38,1.38,0,0,1,30.6,27.08Zm4.47-1.38h4.69l1.31,2.77h-6a3.35,3.35,0,0,0,0-2.77ZM29,15.36a9.11,9.11,0,0,1,4.49-4.44L37.74,9l-2,2.18a4.06,4.06,0,0,0-.69,4.5l3.79,8H25.15ZM18.57,32.48a3,3,0,0,1,2.86-2H42.57a3.1,3.1,0,0,1,2.88,2S18.57,32.48,18.57,32.48Zm4.73,2H40.7a8.7,8.7,0,0,1-17.4,0ZM32,45.1a11,11,0,0,0,3.16-.47v.61a1,1,0,0,0,.5.86l.27.16L32,48.44l-3.93-2.18.27-.16a1,1,0,0,0,.5-.86v-.61A11,11,0,0,0,32,45.1Z"/></g></svg>