<svg viewBox="0 0 64 64" xmlns="http://www.w3.org/2000/svg">
  <defs>
    <style>
      .cls-1{fill:#f0f4f7}.cls-2{fill:#dd5891}.cls-3{fill:#d9387c}.cls-4{fill:#172335}
    </style>
  </defs>
  <g id="Devil">
    <path class="cls-1" d="m22.19 46.19-5-10.3c-.93-2-2.09-1.85-2.39.29a32.54 32.54 0 0 0-.32 5.34 28 28 0 0 0 1.78 8.76l4.94-.43Z" id="path116892-43"/>
    <path class="cls-1" d="m41.81 46.2 5-10.31c.93-2 2.09-1.85 2.39.29a32.54 32.54 0 0 1 .32 5.34 28 28 0 0 1-1.78 8.76l-4.94-.43Z" id="path72041-9-1"/>
    <path class="cls-2" d="M27.1 40.89v2.43l-7.32 4.28c-2.58 1.51-4.7 3.66-5.28 6.58A1.52 1.52 0 0 0 16 56h6l2-2.28L28.35 56h6.54l4.4-2.28 2 2.28H48a1.52 1.52 0 0 0 1.49-1.82c-.58-2.92-2.7-5.07-5.28-6.58l-7.31-4.28v-2.43Z" id="path271370"/>
    <path class="cls-3" d="M32.9 40.89v4.74l7.32 4.27a10.42 10.42 0 0 1 5.17 6.1H48a1.52 1.52 0 0 0 1.49-1.82c-.58-2.92-2.7-5.07-5.28-6.58l-7.31-4.28v-2.43Z" id="path279823"/>
    <path class="cls-2" d="M41.55 15a12.42 12.42 0 0 1 2.94 8c0 2.73-.19 7.19-1.2 9.71-2 5.13-6.33 9.67-11.29 9.67-5 0-9.25-4.54-11.29-9.67-1-2.52-1.2-7-1.2-9.71a12.42 12.42 0 0 1 2.94-8l3.65-3a12.56 12.56 0 0 1 11.79 0Z" id="path25222-7-2-3-6"/>
    <path class="cls-1" d="m28.35 56-3.75-5.76c-1.33-2-3-1.78-3.13.65a14 14 0 0 0 .47 5.11Z" id="path116555-4"/>
    <path class="cls-1" d="m34.89 56 3.75-5.76c1.33-2 3-1.78 3.12.65A13.83 13.83 0 0 1 41.3 56Z" id="path116374-9"/>
    <path class="cls-1" d="M25.79 33A20.9 20.9 0 0 0 32 34.09 20.9 20.9 0 0 0 38.21 33s-2.1 4.83-6.21 4.83S25.79 33 25.79 33Z" id="path52715-0-0"/>
    <path class="cls-3" d="M32 10.52a13.38 13.38 0 0 0-1.8.13A12.38 12.38 0 0 1 34.29 12L38 15a12.47 12.47 0 0 1 2.89 8c0 2.73-.19 7.19-1.2 9.71-1.79 4.5-5.31 8.54-9.49 9.47a8.34 8.34 0 0 0 1.8.2c5 0 9.25-4.54 11.29-9.67 1-2.52 1.2-7 1.2-9.71a12.42 12.42 0 0 0-2.94-8l-3.66-3A12.42 12.42 0 0 0 32 10.52Z" id="path281988"/>
    <path class="cls-1" d="m29 18.1-4.24-8.9C24 7.52 23 7.61 22.7 9.45a27.37 27.37 0 0 0-.28 4.61c.12 4.11.12 6.64 1.52 8.15 3.06 3.33 6.94-.27 5.06-4.11Z" id="path124199-6"/>
    <path class="cls-1" d="m35 18.1 4.28-8.9c.81-1.68 1.81-1.59 2.06.25a27.37 27.37 0 0 1 .28 4.61c-.12 4.11-.12 6.64-1.52 8.15-3.1 3.33-6.99-.27-5.1-4.11Z" id="path125117-8"/>
    <path class="cls-4" d="M14 56.08a2.54 2.54 0 0 0 2 .92h32a2.54 2.54 0 0 0 2-.92 2.51 2.51 0 0 0 .48-2.08 9 9 0 0 0-1.7-3.73 28.94 28.94 0 0 0 1.7-8.71 33.18 33.18 0 0 0-.33-5.56c-.28-2-1.23-2.44-1.77-2.52s-1.61 0-2.51 1.93l-4.49 9.33-3.48-2v-1.33a18.84 18.84 0 0 0 6.32-8.32c1.11-2.77 1.27-7.5 1.27-10.08a13.52 13.52 0 0 0-2.92-8.37v-.55a28.55 28.55 0 0 0-.29-4.78C42 7.5 41.16 7.1 40.65 7s-1.49 0-2.31 1.75l-.92 1.91a13.79 13.79 0 0 0-10.84 0l-.92-1.91c-.82-1.71-1.8-1.83-2.32-1.75s-1.34.5-1.63 2.31a28.67 28.67 0 0 0-.29 4.78v.55A13.5 13.5 0 0 0 18.51 23c0 2.58.16 7.31 1.27 10.08a18.84 18.84 0 0 0 6.32 8.32v1.34l-3.48 2-4.49-9.33c-.9-1.88-2-2-2.51-1.93S14.13 34 13.85 36a33.18 33.18 0 0 0-.33 5.51 28.94 28.94 0 0 0 1.7 8.71 9 9 0 0 0-1.7 3.78 2.51 2.51 0 0 0 .48 2.08ZM22.47 51a1.78 1.78 0 0 1 .32-1.09s.47.15 1 .92L26.5 55h-3.78a13.51 13.51 0 0 1-.25-4Zm17-.17c.5-.77.9-.92 1-.92s.28.31.34 1.09a13.84 13.84 0 0 1-.25 4h-3.82Zm8.19-14.47a3.91 3.91 0 0 1 .36-.61 3.3 3.3 0 0 1 .14.61 31.31 31.31 0 0 1 .31 5.17 27 27 0 0 1-1.24 7.08 14.75 14.75 0 0 0-2.51-1.83l-1.62-.94ZM40.14 9.63c0-.1.09-.18.14-.26v.22a26.61 26.61 0 0 1 .3 4.41c-.11 3.41 0 6.2-1.25 7.5-.93 1-2 1.27-2.84.69a2.87 2.87 0 0 1-.63-3.69Zm-16.45 0v-.22c.05.08.09.16.14.26l4.28 8.9a2.87 2.87 0 0 1-.63 3.69c-.85.58-1.91.32-2.84-.69-1.25-1.36-1.15-4.42-1.25-7.5a26.67 26.67 0 0 1 .3-4.48Zm-2.05 22.72c-1-2.55-1.13-7.38-1.13-9.34a11.54 11.54 0 0 1 1.08-4.88c.17 2.06.55 3.61 1.61 4.76 1.51 1.63 3.64 2.2 5.43 1a4.85 4.85 0 0 0 1.31-6.22l-2.49-5.18a11.77 11.77 0 0 1 9.1 0l-2.49 5.18a4.85 4.85 0 0 0 1.31 6.22 3.69 3.69 0 0 0 2.07.65 4.65 4.65 0 0 0 3.36-1.64c1.06-1.15 1.43-2.7 1.61-4.76A11.54 11.54 0 0 1 43.49 23c0 2-.11 6.79-1.13 9.34-1.79 4.5-5.69 9-10.36 9s-8.57-4.49-10.36-8.99Zm6 11.84a1 1 0 0 0 .49-.87v-.78a9.37 9.37 0 0 0 7.8 0v.78a1 1 0 0 0 .49.87l7.33 4.28c2.72 1.59 4.34 3.58 4.8 5.9a.53.53 0 0 1-.11.44.52.52 0 0 1-.44.19h-5.43a16.5 16.5 0 0 0 .19-4.18c-.16-2.22-1.32-2.76-1.81-2.89a2.8 2.8 0 0 0-2.82 1.31h-3a3.3 3.3 0 0 0-2.85 1.65 1 1 0 0 0 1.73 1 1.3 1.3 0 0 1 1.12-.65h1.67L34.35 55h-5.46l-2.45-3.76h1.62a1.3 1.3 0 0 1 1.13.65 1 1 0 0 0 1.73-1 3.3 3.3 0 0 0-2.86-1.65h-2.95a2.8 2.8 0 0 0-2.82-1.31c-.49.13-1.66.67-1.81 2.89a16 16 0 0 0 .19 4.18H16a.52.52 0 0 1-.4-.19.53.53 0 0 1-.11-.44c.46-2.32 2.08-4.31 4.8-5.9Zm-11.81-7.88a3.36 3.36 0 0 1 .14-.6 3.25 3.25 0 0 1 .36.61l4.56 9.48-1.62.94a14.75 14.75 0 0 0-2.51 1.83 27.39 27.39 0 0 1-1.24-7.08 31.49 31.49 0 0 1 .31-5.18Z"/>
    <path class="cls-4" d="M26.4 27.89a1 1 0 0 0-1.41 0l-2 2a1 1 0 0 0 1.41 1.41l2-2a1 1 0 0 0 0-1.41ZM39.64 31.34a1 1 0 0 0 1.41-1.41l-2-2a1 1 0 1 0-1.45 1.37ZM39.13 33.38a1 1 0 0 0-.19-1.09 1 1 0 0 0-1.06-.29A20.07 20.07 0 0 1 32 33.09 20.25 20.25 0 0 1 26.12 32a1 1 0 0 0-1.06.25 1 1 0 0 0-.19 1.09c.09.22 2.41 5.43 7.13 5.43s7-5.17 7.13-5.39ZM28 34.63a19.7 19.7 0 0 0 4 .46 19.71 19.71 0 0 0 4-.46 5.35 5.35 0 0 1-4 2.18 5.31 5.31 0 0 1-4-2.18Z"/>
  </g>
</svg>