<svg viewBox="0 0 64 64" xmlns="http://www.w3.org/2000/svg">
  <defs>
    <style>
      .cls-1{fill:#ebb87f}.cls-2{fill:#748a95}.cls-3{fill:#617880}.cls-4{fill:#efc89d}.cls-7{fill:#172335}
    </style>
  </defs>
  <g id="Cyclops">
    <path class="cls-1" d="M19.52 24.31S16 25 15 27.6a2.49 2.49 0 0 0 .88 2.48 7 7 0 0 0 4.48 1.67l3.08-4Z" id="path145675-5"/>
    <path class="cls-1" d="M44.48 22.43s3.52.65 4.52 3.29a2.53 2.53 0 0 1-.88 2.48A7.41 7.41 0 0 1 44 29.88l-3.28-3.45Z" id="path145680-4"/>
    <path class="cls-2" d="m22.19 46.19-5-10.3c-.93-2-2.09-1.85-2.39.29a32.54 32.54 0 0 0-.32 5.34 28 28 0 0 0 1.78 8.76l4.89-.52Z" id="path116892-4-6"/>
    <path class="cls-2" d="m41.81 46.19 5-10.3c.93-2 2.09-1.85 2.39.29a32.54 32.54 0 0 1 .32 5.34 28 28 0 0 1-1.78 8.76l-4.89-.52Z" id="path72041-9-5-9"/>
    <path class="cls-3" d="M48.12 34.5c-.43 0-.91.47-1.35 1.38l-.18.38a31.81 31.81 0 0 1 .31 5.26A27 27 0 0 1 45.22 50l2.48.27a28.08 28.08 0 0 0 1.78-8.77 32.54 32.54 0 0 0-.32-5.34C49 35 48.6 34.48 48.12 34.5Z" id="path194443"/>
    <path class="cls-3" d="m22.19 46.2-5-10.32c-.44-.91-.92-1.37-1.35-1.38s-.88.54-1 1.68v.34l5.36 12.07Z" id="path194880"/>
    <path class="cls-4" d="M36.9 38.82v4.5l7.32 4.28c2.58 1.51 4.7 3.66 5.28 6.58A1.52 1.52 0 0 1 48 56H16a1.52 1.52 0 0 1-1.49-1.82c.58-2.92 2.7-5.07 5.28-6.58l7.32-4.28-.32-4.5Z" id="path123162-37"/>
    <path class="cls-1" d="M33 38.81v4.51l7.33 4.28c2.57 1.51 4.69 3.66 5.27 6.58A1.52 1.52 0 0 1 44.11 56H48a1.52 1.52 0 0 0 1.49-1.82c-.58-2.92-2.7-5.07-5.28-6.58l-7.31-4.28v-4.51Z" id="path188078"/>
    <path class="cls-2" d="m23.85 13.54-3.63-.68L18.13 8l-1.38 5.11a4.63 4.63 0 0 0 1.34 4.64L20 19.5l3.92-3Z" id="path71180-5"/>
    <path class="cls-2" d="m40.15 13.54 3.63-.68L45.87 8l1.38 5.11a4.62 4.62 0 0 1-1.35 4.64L44 19.5l-3.92-3Z" id="path71610-0"/>
    <path class="cls-3" d="m45.87 8-1.58 3.68.39 1.43a4.65 4.65 0 0 1-1.35 4.64l-.75.68L44 19.5l1.91-1.75a4.61 4.61 0 0 0 1.35-4.64Z" id="path194441"/>
    <path class="cls-3" d="M20.21 12.86 18.13 8l-1 3.68.51 1.18Z" id="path192031"/>
    <path class="cls-4" d="M43.29 32.72c-2 5.13-6.33 9.67-11.29 9.67s-9.25-4.54-11.29-9.67c-1-2.52-1.2-7-1.2-9.71a12.49 12.49 0 0 1 25 0c-.02 2.73-.21 7.19-1.22 9.71Z" id="path25222-7-2-261"/>
    <path d="M40.36 24.35s-1.48 6.78-8.36 6.78-8.36-6.78-8.36-6.78 1.48-6.77 8.36-6.77 8.36 6.77 8.36 6.77Z" id="path68751-4" style="fill:#f0f4f7"/>
    <path class="cls-2" d="M35.15 24.35A3.15 3.15 0 1 1 32 21.2a3.15 3.15 0 0 1 3.15 3.15Z" id="path68646-8-9-4"/>
    <path class="cls-1" d="M32 10.52a11.27 11.27 0 0 0-1.54.1A12.48 12.48 0 0 1 41.42 23c0 2.73-.19 7.19-1.19 9.71-1.83 4.59-5.46 8.71-9.77 9.52a8 8 0 0 0 1.54.15c5 0 9.25-4.54 11.29-9.67 1-2.52 1.2-7 1.2-9.71A12.49 12.49 0 0 0 32 10.52Z" id="path187001"/>
    <path d="M32 17.58a9.52 9.52 0 0 0-1.34.09c5.74.81 7 6.68 7 6.68s-1.28 5.88-7 6.69a11.3 11.3 0 0 0 1.34.09c6.88 0 8.36-6.78 8.36-6.78s-1.48-6.77-8.36-6.77Z" id="path198061" style="fill:#e0e9ee"/>
    <path class="cls-7" d="M41.34 24.56a1 1 0 0 0 0-.42 9.55 9.55 0 0 0-18.68 0 1 1 0 0 0 0 .42 9.55 9.55 0 0 0 18.68 0Zm-16.67-.21A7.54 7.54 0 0 1 32 18.58c5.4 0 7 4.69 7.33 5.77-.3 1.09-1.9 5.78-7.33 5.78s-7-4.7-7.33-5.78Z"/>
    <path class="cls-7" d="M14 56.08a2.56 2.56 0 0 0 2 .92h32a2.56 2.56 0 0 0 2-.92 2.51 2.51 0 0 0 .48-2.08 9 9 0 0 0-1.7-3.73 28.94 28.94 0 0 0 1.7-8.71 33.25 33.25 0 0 0-.33-5.56c-.28-2-1.23-2.44-1.77-2.52s-1.61 0-2.51 1.93l-4.49 9.33-3.48-2v-1.33a18.84 18.84 0 0 0 6.32-8.32 13.25 13.25 0 0 0 .65-2.29 9.14 9.14 0 0 0 3.84-1.8 3.47 3.47 0 0 0 1.21-3.64C49 23 46.66 22 45.42 21.65a13.42 13.42 0 0 0-.32-1.81l1.48-1.35a5.64 5.64 0 0 0 1.64-5.65l-1.39-5.1A1 1 0 0 0 45 7.61L43.08 12l-2.67.5a13.43 13.43 0 0 0-16.82 0l-2.67-.5-1.87-4.39a1 1 0 0 0-1.88.13l-1.39 5.11a5.63 5.63 0 0 0 1.64 5.64l1.48 1.35a13.29 13.29 0 0 0-.39 3.16v.54a6.77 6.77 0 0 0-4.43 3.69 3.47 3.47 0 0 0 1.21 3.64 8.64 8.64 0 0 0 4.37 1.85c0 .12.07.25.12.36a18.84 18.84 0 0 0 6.32 8.32v1.34l-3.48 2-4.49-9.33c-.9-1.88-2-2-2.51-1.93S14.13 34 13.85 36a33.25 33.25 0 0 0-.33 5.51 28.94 28.94 0 0 0 1.7 8.71 9 9 0 0 0-1.7 3.78 2.51 2.51 0 0 0 .48 2.08Zm33.67-19.76a4.7 4.7 0 0 1 .33-.62 3.75 3.75 0 0 1 .14.61 31.49 31.49 0 0 1 .31 5.18 27.48 27.48 0 0 1-1.24 7.08 14.75 14.75 0 0 0-2.51-1.83l-1.62-.94Zm.38-10.25a1.6 1.6 0 0 1-.55 1.34 8 8 0 0 1-2.31 1.25c.2-1.73.28-3.49.3-4.86a4.35 4.35 0 0 1 2.56 2.27ZM44 13.84a1 1 0 0 0 .73-.59l.92-2.25.64 2.34A3.62 3.62 0 0 1 45.23 17l-.81.74a13.61 13.61 0 0 0-2.24-3.57ZM18.77 17a3.62 3.62 0 0 1-1.06-3.64l.63-2.36 1 2.21a1 1 0 0 0 .73.59l1.79.34a13.35 13.35 0 0 0-2.24 3.57ZM16.5 29.29A1.6 1.6 0 0 1 16 28a4.43 4.43 0 0 1 2.62-2.3 35.39 35.39 0 0 0 .53 5 7.53 7.53 0 0 1-2.65-1.41Zm5.13 3.06c-1-2.55-1.12-7.38-1.12-9.34a11.49 11.49 0 0 1 23 0c0 2-.11 6.79-1.13 9.34-1.79 4.5-5.69 9-10.36 9s-8.59-4.5-10.39-9Zm6 11.84a1 1 0 0 0 .49-.87v-.78a9.37 9.37 0 0 0 7.8 0v.78a1 1 0 0 0 .49.87l7.33 4.28c2.72 1.59 4.34 3.57 4.8 5.9a.53.53 0 0 1-.11.44.52.52 0 0 1-.43.19H16a.52.52 0 0 1-.4-.19.53.53 0 0 1-.11-.44c.46-2.33 2.08-4.31 4.8-5.9Zm-11.8-7.87a3.66 3.66 0 0 1 .17-.62 4.7 4.7 0 0 1 .36.62l4.56 9.48-1.62.94a14.75 14.75 0 0 0-2.51 1.83 27.48 27.48 0 0 1-1.24-7.08 31.31 31.31 0 0 1 .28-5.17Z"/>
    <path class="cls-7" d="M23.35 52.24h5.1a1.3 1.3 0 0 1 1.12.65 1 1 0 1 0 1.73-1 3.32 3.32 0 0 0-2.85-1.65h-5.1a1 1 0 0 0 0 2ZM33.07 53.26a1 1 0 0 0 1.36-.37 1.3 1.3 0 0 1 1.12-.65h5.1a1 1 0 0 0 0-2h-5.1a3.32 3.32 0 0 0-2.85 1.65 1 1 0 0 0 .37 1.37ZM29.29 48.88a1 1 0 0 0 1.85-.78l-1-2.39a1 1 0 1 0-1.84.78ZM33.39 49.41a1 1 0 0 0 1.32-.53l1-2.39a1 1 0 1 0-1.84-.78l-1 2.39a1 1 0 0 0 .52 1.31ZM36.15 24.35A4.15 4.15 0 1 0 32 28.5a4.15 4.15 0 0 0 4.15-4.15Zm-6.3 0A2.15 2.15 0 1 1 32 26.5a2.15 2.15 0 0 1-2.15-2.15Z"/>
  </g>
</svg>