<svg viewBox="0 0 64 64" xmlns="http://www.w3.org/2000/svg">
  <defs>
    <style>
      .cls-1{fill:#efc89d}.cls-2{fill:#dd5891}.cls-3{fill:#ebb87f}.cls-6{fill:#172335}
    </style>
  </defs>
  <g data-name="Devil Queen" id="Devil_Queen">
    <path class="cls-1" d="M37.17 40.05v2.57l7.73 4.52c2.72 1.58 5 3.85 5.57 6.94A1.61 1.61 0 0 1 48.89 56h-4.42L32 52.72 19.53 56h-4.42a1.61 1.61 0 0 1-1.58-1.92c.61-3.09 2.85-5.36 5.57-6.94l7.73-4.52v-2.57Z" id="path123162-6-20-5-9"/>
    <path class="cls-2" d="M44.47 56A6.57 6.57 0 0 0 34 50.75a2.89 2.89 0 0 1-3.93 0A6.57 6.57 0 0 0 19.53 56Z" id="path453839-2-4"/>
    <path class="cls-3" d="M34.62 40.05v4.68l7.74 4.52C45 50.8 47.22 53 47.88 56h1a1.61 1.61 0 0 0 1.58-1.92c-.61-3.09-2.85-5.36-5.57-6.94l-7.73-4.52v-2.57Z" id="path454802-5-9"/>
    <path class="cls-2" d="m21.09 12.29-.45-.08a4 4 0 0 1-2.93-2.35 1.1 1.1 0 0 0-2.07.14l-.56 2.06a4.63 4.63 0 0 0 1.34 4.64l.91.83 4.12-.93Z" id="path172370-1"/>
    <path class="cls-2" d="m43 12.29.44-.08a4 4 0 0 0 2.94-2.35 1.1 1.1 0 0 1 2.07.14l.55 2.06a4.65 4.65 0 0 1-1.35 4.64l-.91.83-3.92-.7Z" id="path172366-5"/>
    <path d="M37.26 40.05a25.79 25.79 0 0 0 8.42-1.39 4.31 4.31 0 0 0 2.5-3.81V24.13a16.14 16.14 0 0 0-32.27 0v10.72a4.31 4.31 0 0 0 2.5 3.81 25.84 25.84 0 0 0 8.42 1.39Z" id="path242812-0-4" style="fill:#748a95"/>
    <path class="cls-1" d="M45 25.46a33.86 33.86 0 0 1-9.52-4.71c-4.24 2.95-10 5.76-16.45 5.76a19.53 19.53 0 0 0 1 4.92c2.16 5.41 6.68 10.2 11.92 10.2s9.76-4.79 11.92-10.2A22.05 22.05 0 0 0 45 25.46Z" id="path238266-2-7"/>
    <path d="M23.64 31.34a11.9 11.9 0 0 0 16.82 0s-2.85 6.54-8.41 6.54-8.41-6.54-8.41-6.54Z" id="path52715-9" style="fill:#f0f4f7"/>
    <path class="cls-3" d="M42.72 24.66A49.67 49.67 0 0 1 41 31.43c-1.95 4.91-5.86 9.31-10.48 10.08a8.57 8.57 0 0 0 1.44.12c5.24 0 9.76-4.79 11.92-10.2a22.13 22.13 0 0 0 1.11-6c-.75-.2-1.52-.43-2.27-.77Z" id="path296752"/>
    <path class="cls-6" d="M18.59 46.27c-3.35 2-5.44 4.6-6 7.62A2.6 2.6 0 0 0 15.11 57h33.78a2.6 2.6 0 0 0 2.56-3.11c-.6-3-2.69-5.65-6-7.61l-7.24-4.23V41A26.46 26.46 0 0 0 46 39.6a5.28 5.28 0 0 0 3.17-4.75V24.13A16.87 16.87 0 0 0 48 17.8l.39-.36A5.6 5.6 0 0 0 50 11.8l-.56-2.06a2.1 2.1 0 0 0-4-.28 3 3 0 0 1-2.19 1.77 17 17 0 0 0-22.46 0 3 3 0 0 1-2.19-1.76 2.11 2.11 0 0 0-4 .28l-.56 2.06a5.6 5.6 0 0 0 1.64 5.64l.39.36a17.07 17.07 0 0 0-1.23 6.33v10.71a5.28 5.28 0 0 0 3.17 4.75 27 27 0 0 0 7.82 1.4v1Zm2 8.73a5.57 5.57 0 0 1 8.81-3.45 3.86 3.86 0 0 0 5.13 0A5.56 5.56 0 0 1 43.37 55Zm23.81-7c2.89 1.69 4.6 3.8 5.09 6.27a.6.6 0 0 1-.13.51.61.61 0 0 1-.47.22h-3.5a7.56 7.56 0 0 0-7.49-6.56A7.4 7.4 0 0 0 33.37 50a1.94 1.94 0 0 1-2.73 0 7.55 7.55 0 0 0-12 5h-3.5a.61.61 0 0 1-.47-.22.6.6 0 0 1-.13-.51C15 51.8 16.71 49.69 19.6 48l7.74-4.51a1 1 0 0 0 .49-.87v-.91a9.91 9.91 0 0 0 8.34 0v.91a1 1 0 0 0 .49.87ZM32 40.63c-5 0-9.09-4.8-11-9.57a15.32 15.32 0 0 1-.83-3.58A30 30 0 0 0 35.51 22 34.81 34.81 0 0 0 44 26.18a19.25 19.25 0 0 1-1 4.88c-1.91 4.77-6 9.57-11 9.57Zm15.31-30.38a.08.08 0 0 1 .09-.06c.07 0 .08 0 .09.08l.56 2.06a3.62 3.62 0 0 1-1 3.57 17.47 17.47 0 0 0-2.2-3.11 5 5 0 0 0 2.46-2.54ZM16 12.33l.56-2.06a.1.1 0 0 1 .19 0 4.9 4.9 0 0 0 2.45 2.54A17.52 17.52 0 0 0 17 15.9a3.62 3.62 0 0 1-1-3.57Zm.87 22.52V24.13a15.14 15.14 0 0 1 30.27 0v10.72a3.29 3.29 0 0 1-1.83 2.86 24.7 24.7 0 0 1-5.15 1.17 20.93 20.93 0 0 0 4.65-7.08A22.71 22.71 0 0 0 46 25.54a1 1 0 0 0-.71-1 32.42 32.42 0 0 1-9.24-4.57 1 1 0 0 0-1.14 0c-5.32 3.7-10.66 5.58-15.87 5.58a1 1 0 0 0-.74.33 1 1 0 0 0-.25.77 19.81 19.81 0 0 0 1.08 5.19 20.87 20.87 0 0 0 4.64 7.06 23.54 23.54 0 0 1-5.05-1.15 3.31 3.31 0 0 1-1.81-2.9Z"/>
    <path class="cls-6" d="M30.28 44.17a1 1 0 0 0-1.92.57l.64 2.14a1 1 0 0 0 .95.71 1.35 1.35 0 0 0 .29 0 1 1 0 0 0 .67-1.25ZM35 43.5a1 1 0 0 0-1.25.67l-.64 2.13a1 1 0 0 0 .67 1.25 1.35 1.35 0 0 0 .29 0 1 1 0 0 0 1-.71l.64-2.14a1 1 0 0 0-.71-1.2ZM41 30.52a1 1 0 0 0-1.27.11 10.88 10.88 0 0 1-15.41 0 1 1 0 0 0-1.62 1.11c.13.29 3.18 7.14 9.33 7.14s9.2-6.85 9.32-7.14a1 1 0 0 0-.35-1.22Zm-9 6.36A6.76 6.76 0 0 1 27.58 35a13.17 13.17 0 0 0 9 0 6.76 6.76 0 0 1-4.53 1.88Z"/>
  </g>
</svg>