<?xml version="1.0" ?><svg viewBox="0 0 64 64" xmlns="http://www.w3.org/2000/svg"><defs><style>.cls-1{fill:#92d39d;}.cls-2{fill:#74c782;}.cls-3{fill:#aaddb4;}.cls-4{fill:#172335;}</style></defs><g id="Alien"><path class="cls-1" d="M26.5,40.16v3.11a3.68,3.68,0,0,1-2.74,3.57L18,48.39a7.88,7.88,0,0,0-5.54,5.47A1.77,1.77,0,0,0,14.31,56H49.69a1.77,1.77,0,0,0,1.87-2.14A7.88,7.88,0,0,0,46,48.39l-5.78-1.55a3.68,3.68,0,0,1-2.74-3.57V40.16Z" id="path19595-2"/><path class="cls-2" d="M33.5,40.16v3.11a3.68,3.68,0,0,0,2.74,3.57L42,48.39a7.88,7.88,0,0,1,5.54,5.47A1.77,1.77,0,0,1,45.69,56h4a1.77,1.77,0,0,0,1.87-2.14A7.88,7.88,0,0,0,46,48.39l-5.78-1.55a3.68,3.68,0,0,1-2.74-3.57V40.16Z" id="path21651"/><path class="cls-1" d="M19.44,24.94s-3.51.64-4.51,3.28a2.5,2.5,0,0,0,.88,2.48C17,31.63,19,32.78,21,32.25l1.38-3.66Z" id="path140665-5"/><path class="cls-2" d="M44.56,24.94s3.51.64,4.51,3.28a2.5,2.5,0,0,1-.88,2.48C47,31.63,45,32.78,43,32.25l-1.38-3.66Z" id="path19208-6"/><path class="cls-3" d="M44.56,24.94c0,6.94-5.62,17.45-12.56,17.45S19.44,31.88,19.44,24.94a12.56,12.56,0,1,1,25.12,0Z" id="path16247-3"/><path class="cls-1" d="M20.12,8.7a2.4,2.4,0,1,1-3.4,0A2.4,2.4,0,0,1,20.12,8.7Z" id="path16920-6"/><path class="cls-1" d="M43.88,8.7a2.4,2.4,0,1,0,3.4,0A2.4,2.4,0,0,0,43.88,8.7Z" id="path17494-7"/><path class="cls-2" d="M29.82,27.61c-.82,1.43-3.47,1.45-4.9.62a3,3,0,0,1,3-5.17C29.34,23.88,30.65,26.18,29.82,27.61Z" id="path18316-5"/><path class="cls-2" d="M34.18,27.61c.82,1.43,3.47,1.45,4.9.62a3,3,0,1,0-3-5.17C34.66,23.88,33.35,26.18,34.18,27.61Z" id="path18535-3"/><path class="cls-2" d="M34.87,35.69a2.87,2.87,0,0,1-5.74,0c0-1.58,1.29-3.87,2.87-3.87S34.87,34.11,34.87,35.69Z" id="path136627-4"/><path class="cls-1" d="M32,12.37a12,12,0,0,0-2,.17,12.55,12.55,0,0,1,10.56,12.4C40.56,31.2,36,40.36,30,42.09a7.12,7.12,0,0,0,2,.3c6.94,0,12.56-10.51,12.56-17.45A12.56,12.56,0,0,0,32,12.37Z" id="path20181"/><path class="cls-4" d="M27.68,29.76a3.63,3.63,0,0,0,3-1.65,3.66,3.66,0,0,0-.07-3.43,5.8,5.8,0,0,0-2.21-2.49,4,4,0,1,0-4,6.91A5.72,5.72,0,0,0,27.68,29.76Zm-2.26-2.39a2,2,0,0,1-.73-2.72,2,2,0,0,1,2.72-.73,3.91,3.91,0,0,1,1.4,1.61A1.83,1.83,0,0,1,29,27.11h0a1.82,1.82,0,0,1-1.44.66A3.85,3.85,0,0,1,25.42,27.37Z"/><path class="cls-4" d="M36.32,29.76a5.7,5.7,0,0,0,3.26-.66,4,4,0,1,0-4-6.91,5.8,5.8,0,0,0-2.21,2.49,3.66,3.66,0,0,0-.07,3.43A3.63,3.63,0,0,0,36.32,29.76Zm-1.13-4.23a3.91,3.91,0,0,1,1.4-1.61,2,2,0,1,1,2,3.45,3.85,3.85,0,0,1-2.1.4A1.82,1.82,0,0,1,35,27.11h0A1.83,1.83,0,0,1,35.19,25.53Z"/><path class="cls-4" d="M14.31,57H49.69a3,3,0,0,0,2.41-1.16,2.55,2.55,0,0,0,.42-2.25,8.92,8.92,0,0,0-6.24-6.17L40.5,45.88a2.71,2.71,0,0,1-2-2.61V40.63a21.25,21.25,0,0,0,5.09-7.27A7.75,7.75,0,0,0,48.8,31.5,3.48,3.48,0,0,0,50,27.87c-.87-2.32-3.24-3.33-4.48-3.72a13.46,13.46,0,0,0-3.72-8.56L44,13.4A3.4,3.4,0,1,0,43.18,8a3.33,3.33,0,0,0-.59,4l-2.27,2.27a13.46,13.46,0,0,0-16.64,0L21.41,12a3.33,3.33,0,0,0-.59-4A3.41,3.41,0,1,0,20,13.4l2.2,2.19a13.46,13.46,0,0,0-3.72,8.56c-1.24.39-3.61,1.4-4.48,3.72a3.48,3.48,0,0,0,1.2,3.63,7.73,7.73,0,0,0,5.21,1.86,21.25,21.25,0,0,0,5.09,7.27v2.64a2.71,2.71,0,0,1-2,2.61l-5.78,1.54a8.92,8.92,0,0,0-6.24,6.17,2.55,2.55,0,0,0,.42,2.25A3,3,0,0,0,14.31,57ZM48.13,28.57a1.6,1.6,0,0,1-.55,1.34,6.88,6.88,0,0,1-3.21,1.45,21.59,21.59,0,0,0,1.13-5.09A4.42,4.42,0,0,1,48.13,28.57ZM44.59,9.41a1.4,1.4,0,0,1,2,2,1.43,1.43,0,0,1-2,0A1.39,1.39,0,0,1,44.59,9.41Zm-27.16,2a1.4,1.4,0,1,1,2,0A1.43,1.43,0,0,1,17.43,11.39Zm-1,18.52a1.6,1.6,0,0,1-.55-1.34,4.39,4.39,0,0,1,2.63-2.3,21.4,21.4,0,0,0,1.13,5.08A6.87,6.87,0,0,1,16.42,29.91Zm4-5a11.56,11.56,0,1,1,23.12,0c0,6.34-5.29,16.45-11.56,16.45S20.44,31.28,20.44,24.94Zm-7,29.19a6.91,6.91,0,0,1,4.84-4.77L24,47.81a4.7,4.7,0,0,0,3.48-4.54V42.09a8.44,8.44,0,0,0,9,0v1.18A4.7,4.7,0,0,0,40,47.81l5.78,1.55a6.91,6.91,0,0,1,4.84,4.77.53.53,0,0,1-.1.5,1,1,0,0,1-.81.37H14.31a1,1,0,0,1-.81-.37A.53.53,0,0,1,13.4,54.13Z"/><path class="cls-4" d="M23.35,51.74h5.1a1.3,1.3,0,0,1,1.12.65,1,1,0,1,0,1.73-1,3.3,3.3,0,0,0-2.85-1.65h-5.1a1,1,0,0,0,0,2Z"/><path class="cls-4" d="M33.07,52.76a1,1,0,0,0,1.36-.37,1.3,1.3,0,0,1,1.12-.65h5.1a1,1,0,0,0,0-2h-5.1a3.3,3.3,0,0,0-2.85,1.65A1,1,0,0,0,33.07,52.76Z"/><path class="cls-4" d="M29.29,48.38a1,1,0,0,0,.93.61,1.09,1.09,0,0,0,.39-.08,1,1,0,0,0,.53-1.31l-1-2.39a1,1,0,1,0-1.84.78Z"/><path class="cls-4" d="M33.39,48.91a1.09,1.09,0,0,0,.39.08,1,1,0,0,0,.93-.61l1-2.39a1,1,0,1,0-1.84-.78l-1,2.39A1,1,0,0,0,33.39,48.91Z"/><path class="cls-4" d="M28.13,35.69a3.87,3.87,0,0,0,7.74,0c0-1.94-1.54-4.87-3.87-4.87S28.13,33.75,28.13,35.69ZM32,32.82c.82,0,1.87,1.61,1.87,2.87a1.87,1.87,0,0,1-3.74,0C30.13,34.43,31.18,32.82,32,32.82Z"/></g></svg>