<?xml version="1.0" ?><svg viewBox="0 0 64 64" xmlns="http://www.w3.org/2000/svg"><defs><style>.cls-1{fill:#617880;}.cls-2{fill:#92d39d;}.cls-3{fill:#748a95;}.cls-4{fill:#aaddb4;}.cls-5{fill:#172335;}</style></defs><g id="Frankenstein"><path class="cls-1" d="M48.5,26.88v-5h-33v5Z" id="path121899-9"/><path class="cls-2" d="M39.33,43.86l-2.12-1.24V40.05H26.87v2.57l-7.73,4.52a12.34,12.34,0,0,0-4.53,4.24l2.14,2.74,24.19,0Z" id="path123162-20-2"/><path class="cls-3" d="M39.33,43.86a18.28,18.28,0,0,1-4.19,4.21c-1.51.93-4.93,1.62-6.87,2a2.42,2.42,0,0,0-1.79,1.59,1.21,1.21,0,0,1-1.86.65l-.21-.15A3.14,3.14,0,0,0,22,51.85a12.25,12.25,0,0,1-7.34-.47,8.33,8.33,0,0,0-1,2.7A1.6,1.6,0,0,0,15.14,56H48.93a1.62,1.62,0,0,0,1.58-1.92c-.61-3.08-2.85-5.36-5.57-6.94Z" id="path271187"/><path class="cls-4" d="M45.2,18.22s-3.51-5.5-13.16-5.5-13.17,5.5-13.17,5.5c.07,3.91.35,11,1.25,13.21,2.15,5.41,6.68,10.2,11.92,10.2S41.8,36.84,44,31.43C44.85,29.19,45.13,22.13,45.2,18.22Z" id="path266115"/><path class="cls-3" d="M13.59,19.26a1.9,1.9,0,0,1,1.91,1.91v6.45a1.91,1.91,0,0,1-3.82,0V21.17A1.9,1.9,0,0,1,13.59,19.26Z" id="rect121016-3"/><path class="cls-3" d="M50.41,19.26a1.9,1.9,0,0,0-1.91,1.91v6.45a1.91,1.91,0,0,0,3.82,0V21.17A1.9,1.9,0,0,0,50.41,19.26Z" id="path121897-5"/><path class="cls-3" d="M32,8c-7.28,0-13.19,1.11-13.19,8.39,0,.45,0,1.11,0,1.83,0,0,3.52-1.81,13.17-1.81s13.15,1.81,13.16,1.81c0-.72,0-1.38,0-1.83C45.22,9.11,39.32,8,32,8Z" id="path124319-2"/><path class="cls-2" d="M41.11,14.8a11.34,11.34,0,0,1,.11,1.59c0,.45,0,1.11,0,1.83-.07,3.91-.35,11-1.24,13.21-1.88,4.71-5.55,9-9.92,10a8.89,8.89,0,0,0,2,.23c5.23,0,9.76-4.79,11.92-10.2.89-2.24,1.17-9.3,1.24-13.21A11.53,11.53,0,0,0,41.11,14.8Z" id="path272284"/><path class="cls-1" d="M32,8c-.68,0-1.35,0-2,0,6.33.22,11.18,1.75,11.18,8.35,0,.18,0,.49,0,.72a15.93,15.93,0,0,1,4,1.11c0-.72,0-1.38,0-1.83C45.22,9.11,39.32,8,32,8Z" id="path272286"/><path class="cls-1" d="M39.33,43.86a23,23,0,0,1-1.61,2L41.54,48c2.71,1.59,5,3.86,5.57,6.94A1.59,1.59,0,0,1,47,56h2a1.62,1.62,0,0,0,1.58-1.92c-.61-3.08-2.85-5.36-5.57-6.94Z" id="path284130"/><path class="cls-5" d="M50.41,18.26a2.91,2.91,0,0,0-2.89,2.65H46.13c0-1.28.09-3.26.09-4.52C46.22,8.14,39.4,7,32,7S17.85,8.14,17.85,16.39c0,.05,0,2,.09,4.52H16.48a2.91,2.91,0,0,0-5.8.26v6.45a2.91,2.91,0,0,0,5.8.26h1.93a17.27,17.27,0,0,0,.78,3.92,19.7,19.7,0,0,0,6.68,8.77v1.48l-7.24,4.23a13.18,13.18,0,0,0-5,4.78h0a9.12,9.12,0,0,0-1.07,2.82,2.57,2.57,0,0,0,.54,2.16,2.62,2.62,0,0,0,2,1H48.93a2.6,2.6,0,0,0,2.56-3.12c-.6-3-2.69-5.64-6.05-7.6l-7.23-4.23V40.57a19.75,19.75,0,0,0,6.67-8.77,17.18,17.18,0,0,0,.79-3.92h1.85a2.91,2.91,0,0,0,5.8-.26V21.17A2.92,2.92,0,0,0,50.41,18.26Zm-9.48,1.39a1,1,0,0,0-1,1v.26H37.48v-.26a1,1,0,0,0-2,0v.26H33v-.26a1,1,0,0,0-2,0v.26H28.59v-.26a1,1,0,0,0-2,0v.26H24.14v-.26a1,1,0,0,0-2,0v.26h-2.2c0-.7,0-1.38-.06-2,1.3-.46,5-1.48,12.15-1.48h0c7.18,0,10.86,1,12.15,1.48,0,.64,0,1.32-.06,2h-2.2v-.26A1,1,0,0,0,40.93,19.65ZM32,9c7.52,0,12.18,1.24,12.18,7.39v.41c-1.86-.57-5.66-1.39-12.18-1.39h0c-6.51,0-10.31.81-12.18,1.39v-.41C19.85,10.24,24.52,9,32,9ZM14.5,27.62a.91.91,0,0,1-1.82,0V21.17a.91.91,0,0,1,1.82,0Zm2-1.74v-3H18c0,1,.11,2,.19,3Zm33,28.39a.6.6,0,0,1-.13.51.61.61,0,0,1-.47.22H15.15a.6.6,0,0,1-.6-.73,6.92,6.92,0,0,1,.56-1.7,12.79,12.79,0,0,0,7.12.24,2.17,2.17,0,0,1,1.6.12l.22.15a2.21,2.21,0,0,0,3.07-.53,2.3,2.3,0,0,0,.32-.67,1.44,1.44,0,0,1,1-.87c2.43-.42,5.65-1.12,7.22-2.09a17.16,17.16,0,0,0,3.93-3.75L44.43,48C47.33,49.69,49,51.8,49.53,54.27ZM36.7,43.49l1.14.66a14.46,14.46,0,0,1-3.23,3.07A22.26,22.26,0,0,1,28.1,49a3.47,3.47,0,0,0-2.61,2.35.21.21,0,0,1-.29.06L25,51.29a4.08,4.08,0,0,0-3.32-.4,10.36,10.36,0,0,1-5.43-.08A12.35,12.35,0,0,1,19.64,48l7.73-4.51a1,1,0,0,0,.5-.87v-.91a9.91,9.91,0,0,0,8.34,0v.91A1,1,0,0,0,36.7,43.49ZM32,40.63c-5,0-9.09-4.8-11-9.57-.53-1.31-.84-4.75-1-8.15h2.11v.48a1,1,0,0,0,2,0v-.48h2.45v.48a1,1,0,0,0,2,0v-.48H31v.48a1,1,0,0,0,2,0v-.48h2.44v.48a1,1,0,0,0,2,0v-.48h2.45v.48a1,1,0,0,0,2,0v-.48H44c-.17,3.4-.49,6.84-1,8.15C41.13,35.83,37,40.63,32,40.63Zm14-17.72H47.5v3H45.86C45.94,24.9,46,23.89,46.05,22.91Zm5.27,4.71a.91.91,0,0,1-1.82,0V21.17a.91.91,0,0,1,1.82,0Z"/><path class="cls-5" d="M30.62,43.85a1,1,0,0,0-1.91.6l.53,1.67a1,1,0,0,0,1,.7,1,1,0,0,0,.3,0,1,1,0,0,0,.65-1.26Z"/><path class="cls-5" d="M34.71,43.2a1,1,0,0,0-1.26.65l-.52,1.66a1,1,0,0,0,.65,1.26,1,1,0,0,0,.3,0,1,1,0,0,0,1-.7l.52-1.67A1,1,0,0,0,34.71,43.2Z"/><path class="cls-5" d="M40.53,28.81l-2.21.6a3.47,3.47,0,0,0-2.58,3.35v2.13a1,1,0,0,0,2,0V32.76a1.47,1.47,0,0,1,1.1-1.42l2.21-.59a1,1,0,0,0-.52-1.94Z"/><path class="cls-5" d="M25.76,29.41l-2.22-.6A1,1,0,0,0,23,30.75l2.21.59a1.48,1.48,0,0,1,1.09,1.42v2.13a1,1,0,0,0,2,0V32.76A3.47,3.47,0,0,0,25.76,29.41Z"/></g></svg>