<?xml version="1.0" ?><svg viewBox="0 0 64 64" xmlns="http://www.w3.org/2000/svg"><defs><style>.cls-1{fill:#aaddb4;}.cls-2{fill:#92d39d;}.cls-3{fill:#dd5891;}.cls-4{fill:#172335;}</style></defs><g id="Goblin"><path class="cls-1" d="M36.9,37.49v4.57l7.33,4.28c2.57,1.51,4.69,3.66,5.27,6.58A1.52,1.52,0,0,1,48,54.74H16a1.52,1.52,0,0,1-1.49-1.82c.58-2.92,2.7-5.07,5.28-6.58l7.32-4.28V37.49Z" id="path123162-96-8-8"/><path class="cls-2" d="M33.4,37.49v6.32l7.33,4.28c2.57,1.5,4.7,3.66,5.28,6.58a.17.17,0,0,0,0,.07h2a1.52,1.52,0,0,0,1.49-1.82c-.58-2.92-2.7-5.07-5.27-6.58L36.9,42.06V37.49Z" id="path351527-8"/><path class="cls-1" d="M56,18.5s-7.42,0-11.51,3.25c-2.78,2-1.17,4.62-.87,7l5.72-2.24Z" id="path302215-2"/><path class="cls-2" d="M56,18.5c-10.19,4.69-11.7,7.88-11.7,7.88l-1,1.82,0,3.26a3,3,0,0,0,5-1.7c.34-2,4.78-.57,5.27-3.87A30.62,30.62,0,0,1,56,18.5Z" id="path302351-1"/><path class="cls-1" d="M8,18.5s7.42,0,11.51,3.25c2.78,2,1.17,4.62.87,7l-5.72-2.24Z" id="path373275"/><path class="cls-2" d="M8,18.5c10.19,4.69,11.7,7.88,11.7,7.88L21,28.17l-.25,3.29a3,3,0,0,1-5-1.7c-.34-2-4.78-.57-5.27-3.87A30.62,30.62,0,0,0,8,18.5Z" id="path373277"/><path class="cls-1" d="M43.29,31.46c-2,5.13-6.33,9.67-11.29,9.67s-9.25-4.54-11.29-9.67c-1-2.52-1.2-7-1.2-9.71a12.49,12.49,0,0,1,25,0C44.49,24.48,44.3,28.94,43.29,31.46Z" id="path25222-7-2-48-3"/><path class="cls-3" d="M30.09,24.64a3.18,3.18,0,1,1-6.35,0Z" id="path302643-0"/><path class="cls-3" d="M40.26,24.64a3.18,3.18,0,1,1-6.35,0Z" id="path302805-6"/><path class="cls-2" d="M32,9.26a13.16,13.16,0,0,0-2,.16A12.49,12.49,0,0,1,40.49,21.75c0,2.73-.19,7.19-1.2,9.71-1.76,4.42-5.19,8.41-9.29,9.42a8.36,8.36,0,0,0,2,.25c5,0,9.25-4.54,11.29-9.67,1-2.52,1.2-7,1.2-9.71A12.49,12.49,0,0,0,32,9.26Z" id="path363051"/><path class="cls-4" d="M27.93,49.66H22.1a1,1,0,1,0,0,2h5.83a1.64,1.64,0,0,1,1.41.82,1,1,0,0,0,.87.5.93.93,0,0,0,.5-.14,1,1,0,0,0,.37-1.36A3.66,3.66,0,0,0,27.93,49.66Z"/><path class="cls-4" d="M32.93,51.48a1,1,0,0,0,.36,1.36.93.93,0,0,0,.5.14,1,1,0,0,0,.87-.5,1.64,1.64,0,0,1,1.41-.82H41.9a1,1,0,1,0,0-2H36.07A3.63,3.63,0,0,0,32.93,51.48Z"/><path class="cls-4" d="M29,47.9a1,1,0,0,0,.92.61.91.91,0,0,0,.39-.08,1,1,0,0,0,.53-1.31l-1.16-2.73a1,1,0,0,0-1.84.78Z"/><path class="cls-4" d="M34.28,44.39l-1.16,2.73a1,1,0,0,0,.53,1.31.91.91,0,0,0,.39.08A1,1,0,0,0,35,47.9l1.16-2.73a1,1,0,0,0-1.84-.78Z"/><path class="cls-4" d="M56,17.5h0c-.29,0-6.29.06-10.64,2.49a13.47,13.47,0,0,0-26.72,0C14.29,17.56,8.29,17.5,8,17.5H8a1,1,0,0,0-.9,1.44A29.94,29.94,0,0,1,9.51,26c.37,2.53,2.5,3,3.92,3.38.52.13,1.31.31,1.34.51a4,4,0,0,0,2.45,3,3.84,3.84,0,0,0,1.41.27,4.12,4.12,0,0,0,1.6-.35,18.51,18.51,0,0,0,5.87,7.28v1.34l-6.83,4c-3.19,1.87-5.18,4.37-5.75,7.25A2.51,2.51,0,0,0,14,54.82a2.56,2.56,0,0,0,2,.92H48a2.54,2.54,0,0,0,2-.92,2.51,2.51,0,0,0,.52-2.09c-.56-2.88-2.56-5.38-5.75-7.25l-6.83-4V40.15a18.51,18.51,0,0,0,5.87-7.28,4.12,4.12,0,0,0,1.6.35A3.84,3.84,0,0,0,46.78,33a4,4,0,0,0,2.45-3c0-.2.82-.38,1.34-.51,1.42-.34,3.55-.85,3.93-3.38a29.63,29.63,0,0,1,2.4-7.1A1,1,0,0,0,56,17.5ZM45.49,22.28a14.68,14.68,0,0,1,4.94-2.06,32.58,32.58,0,0,0-5,3.4C45.48,23.14,45.49,22.7,45.49,22.28ZM18.54,23.63a31.29,31.29,0,0,0-5-3.41,14.68,14.68,0,0,1,4.94,2.06C18.52,22.7,18.52,23.14,18.54,23.63ZM18,31.09a2,2,0,0,1-1.22-1.49c-.25-1.5-1.69-1.85-2.85-2.12-1.55-.37-2.25-.65-2.41-1.73A24.78,24.78,0,0,0,10,20.57c6.53,3.31,8.39,5.63,8.74,6.13A22,22,0,0,0,19.51,31,2,2,0,0,1,18,31.09ZM36.39,42.93l7.33,4.28c2.73,1.59,4.34,3.58,4.8,5.91a.51.51,0,0,1-.11.43.52.52,0,0,1-.4.19H16a.52.52,0,0,1-.4-.19.51.51,0,0,1-.11-.43c.46-2.33,2.08-4.32,4.8-5.91l7.33-4.28a1,1,0,0,0,.49-.87v-.78a9.37,9.37,0,0,0,7.8,0v.78A1,1,0,0,0,36.39,42.93ZM32,40.13c-4.67,0-8.57-4.54-10.36-9-1-2.55-1.13-7.38-1.13-9.34a11.49,11.49,0,0,1,23,0c0,2-.11,6.79-1.12,9.34C40.57,35.59,36.67,40.13,32,40.13ZM52.52,25.75c-.16,1.08-.86,1.36-2.41,1.73-1.16.27-2.6.61-2.85,2.12A2,2,0,0,1,46,31.09,2,2,0,0,1,44.49,31a22,22,0,0,0,.78-4.31c.38-.54,2.26-2.84,8.74-6.13A25,25,0,0,0,52.52,25.75Z"/><path class="cls-4" d="M30.09,23.64H23.74a1,1,0,0,0-1,1,4.18,4.18,0,1,0,8.35,0A1,1,0,0,0,30.09,23.64Zm-3.17,3.18A2.2,2.2,0,0,1,25,25.64h3.87A2.19,2.19,0,0,1,26.92,26.82Z"/><path class="cls-4" d="M40.26,23.64H33.91a1,1,0,0,0-1,1,4.18,4.18,0,1,0,8.35,0A1,1,0,0,0,40.26,23.64Zm-3.18,3.18a2.19,2.19,0,0,1-1.93-1.18H39A2.2,2.2,0,0,1,37.08,26.82Z"/></g></svg>