<?xml version="1.0" ?><svg viewBox="0 0 64 64" xmlns="http://www.w3.org/2000/svg"><defs><style>.cls-1{fill:#e0e9ee;}.cls-2{fill:#d0e1e8;}.cls-3{fill:#748a95;}.cls-4{fill:#f0f4f7;}.cls-5{fill:#617880;}.cls-6{fill:#172335;}</style></defs><g id="Grim"><path class="cls-1" d="M20.21,13.44C5.38,15.5,7.27,27.45,9.49,34l7.89-7.71,6.88-4.43-.85-7.5Z" id="path70796-3"/><path class="cls-2" d="M22.5,21.14C12.06,23.56,9.92,31.22,9.49,34a31.08,31.08,0,0,0,1.78,4.26s.27-9.75,11.21-13.3l2.08-.43-.3-2.67Z" id="path70966-5"/><path class="cls-3" d="M23,18.23l-4-6.92A2.2,2.2,0,0,1,22.79,9.1l2.54,4.39,5.13,4Z" id="path70711-9"/><path class="cls-4" d="M54.17,45c-1.18-1.86-3.85-7.37-3.85-12.41V21.92a13.92,13.92,0,1,0-27.83,0v10.7c0,6.64-1.69,9.84-3.32,11.39a6.68,6.68,0,0,0-1.93,5.55c.69,3.09,2.11,6.44,8.65,6.44a14.88,14.88,0,0,0,1.68-.1l16.57-5Z" id="rect205218-2-4"/><path class="cls-1" d="M54.17,45c-1.18-1.86-3.85-7.37-3.85-12.41V21.92A13.92,13.92,0,0,0,36.4,8a14.71,14.71,0,0,0-2,.14A13.93,13.93,0,0,1,46.32,21.92v10.7c0,5,1,8.11,2.16,10Z" id="path416860-7"/><path class="cls-2" d="M45.48,40A9,9,0,0,0,37,47c-1.35,6.94-9.09,8.84-9.4,8.91a11.88,11.88,0,0,0,2.23-.45c6-1.88,7.24-1.88,13.2,0a13,13,0,0,0,3.92.55c5.35,0,7.76-2.75,8.83-5.44.86-2.15-.84-4.51-2.31-6.57A9.61,9.61,0,0,0,45.48,40Z" id="path232721-10-6"/><path class="cls-5" d="M42.35,34.36c0,5.13-6,5.76-6,5.76s-5.95-.63-5.95-5.76Z" id="path65157-3"/><path class="cls-3" d="M36.4,15.51a19.15,19.15,0,0,0-9,2.2h0a6.47,6.47,0,0,0-1.23,4.11,10.2,10.2,0,0,0,2.18,6.28A1.47,1.47,0,0,0,27.81,31l2.64.71v2.67a1.9,1.9,0,0,0,1.91,1.91h8.09a1.9,1.9,0,0,0,1.9-1.91V31.69L45,31a1.47,1.47,0,0,0-.55-2.88,10.2,10.2,0,0,0,2.15-6.28,6.41,6.41,0,0,0-1.23-4.11A19.32,19.32,0,0,0,36.4,15.51Z" id="path81748-6"/><path class="cls-2" d="M42,22.16l-3.34.19a1.07,1.07,0,0,0-1,.75,3,3,0,0,0,0,.43,2.74,2.74,0,1,0,5.47,0,2.52,2.52,0,0,0-.1-.73A1,1,0,0,0,42,22.16Z" id="path182529-9-2-91"/><path class="cls-2" d="M29.79,22.8a2.92,2.92,0,0,0-.1.73,2.74,2.74,0,1,0,5.48,0,3,3,0,0,0,0-.43,1.07,1.07,0,0,0-1-.75l-3.34-.19A1,1,0,0,0,29.79,22.8Z" id="path172191-2-1-27"/><path class="cls-2" d="M37.45,28.46l.72,1.44A1.45,1.45,0,0,1,36.88,32h-1a1.45,1.45,0,0,1-1.3-2.1l.72-1.44A1.17,1.17,0,0,1,37.45,28.46Z" id="rect174019-2-0-0"/><path class="cls-6" d="M51.32,32.62V21.92A14.9,14.9,0,0,0,25.49,11.78L23.66,8.6a3.21,3.21,0,0,0-5.55,3.21l.53.9c-5,1-8.46,3.23-10.25,6.73-4,7.81,1.75,18.79,2,19.25a1,1,0,0,0,1.88-.44,14.22,14.22,0,0,1,9.23-11.89v6.26c0,6.45-1.64,9.36-3,10.67a7.68,7.68,0,0,0-2.22,6.49C17,53.14,18.79,57,25.89,57a15,15,0,0,0,4.21-.6c5.77-1.81,6.83-1.81,12.6,0a14,14,0,0,0,4.22.6c6.06,0,8.65-3.3,9.76-6.07.94-2.34-.27-4.24-1.66-6.44C54.06,43,51.32,37.56,51.32,32.62Zm-31-23.46a1.21,1.21,0,0,1,1.64.44l2.21,3.84a15.29,15.29,0,0,0-1.37,2.44l-2.92-5.07A1.2,1.2,0,0,1,20.29,9.16ZM10.17,20.35c1.57-3.07,4.79-5,9.53-5.8l2.22,3.85a15.74,15.74,0,0,0-.35,2c-7.38,1.95-10.64,6.51-12.06,10C8.81,27.09,8.62,23.38,10.17,20.35Zm.74,14.59c-.13-.33-.26-.69-.39-1.06.51-2.87,2.59-9,11-11.42v1.77A16.44,16.44,0,0,0,10.91,34.94Zm7.3,14.4a5.76,5.76,0,0,1,1.65-4.6c2.41-2.29,3.63-6.37,3.63-12.12V21.92a12.92,12.92,0,1,1,25.83,0v10.7a23.33,23.33,0,0,0,1.56,7.79,9.92,9.92,0,0,0-7.42-1.15A9.81,9.81,0,0,0,36,46.79c-1.16,5.94-7.69,7.88-8.6,8.12a12.09,12.09,0,0,1-1.5.09C20,55,18.85,52.2,18.21,49.34Zm36.62.85C53.55,53.38,50.89,55,46.92,55a12,12,0,0,1-3.62-.51A23.1,23.1,0,0,0,36.4,53a12.58,12.58,0,0,0-1.81.14,11,11,0,0,0,3.36-6,7.84,7.84,0,0,1,6-6c3.28-.77,6.49.49,8.8,3.48.05.07.49.69.61.88C54.79,47.86,55.33,48.92,54.83,50.19Z"/><path class="cls-6" d="M27.55,32l1.9.51v1.9h0c0,4.77,4.48,6.5,6.85,6.75h.21c2.37-.25,6.85-2,6.84-6.75h0v-1.9L45.26,32A2.48,2.48,0,0,0,46,27.53a11.21,11.21,0,0,0,1.56-5.71,9.39,9.39,0,0,0-.16-1.72,1,1,0,0,0,.93-.33,1,1,0,0,0-.12-1.41A19.48,19.48,0,0,0,36.4,14.51a19.47,19.47,0,0,0-11.84,3.85,1,1,0,0,0,.81,1.74,9.37,9.37,0,0,0-.17,1.72,11.33,11.33,0,0,0,1.58,5.71,2.47,2.47,0,0,0-1,1.39A2.51,2.51,0,0,0,26,30.8,2.47,2.47,0,0,0,27.55,32Zm8.85,7.16a6.91,6.91,0,0,1-3.85-1.84h7.69A7,7,0,0,1,36.4,39.11Zm8.29-20.62a5.54,5.54,0,0,1,.91,3.33,9.25,9.25,0,0,1-1.94,5.66,1,1,0,0,0,.91,1.61.48.48,0,0,1,.51.35.48.48,0,0,1-.34.58l-2.64.71a1,1,0,0,0-.75,1v2.67a.89.89,0,0,1-.9.91H32.36a.9.9,0,0,1-.91-.91V31.69a1,1,0,0,0-.74-1L28.06,30a.48.48,0,0,1-.28-.22.46.46,0,0,1-.05-.36.46.46,0,0,1,.52-.35,1,1,0,0,0,.92-1.61,9.28,9.28,0,0,1-2-5.66,5.55,5.55,0,0,1,.92-3.34,18.37,18.37,0,0,1,16.57,0Z"/><path class="cls-6" d="M40.38,27.27a3.75,3.75,0,0,0,3.73-3.75,3.69,3.69,0,0,0-.13-1,2,2,0,0,0-2.06-1.37h0l-3.34.19a2,2,0,0,0-1.9,1.59,3.78,3.78,0,0,0,3.7,4.33Zm-1.74-3.9s3.39-.22,3.44-.2a2.16,2.16,0,0,1,0,.35,1.74,1.74,0,1,1-3.47,0Z"/><path class="cls-6" d="M32.43,27.27a3.72,3.72,0,0,0,3.69-4.33,2,2,0,0,0-1.89-1.59l-3.34-.19a2,2,0,0,0-2.06,1.37,3.72,3.72,0,0,0-.14,1A3.75,3.75,0,0,0,32.43,27.27Zm-1.7-4.1s3.43.2,3.43.2a.76.76,0,0,1,0,.15,1.74,1.74,0,1,1-3.48,0A1.47,1.47,0,0,1,30.73,23.17Z"/><path class="cls-6" d="M34.46,28l-.72,1.44A2.44,2.44,0,0,0,35.93,33h1A2.43,2.43,0,0,0,39,31.84a2.45,2.45,0,0,0,.11-2.39L38.35,28a2.18,2.18,0,0,0-3.89,0Zm1.07,2.34.72-1.45a.15.15,0,0,1,.15-.09.17.17,0,0,1,.16.09l.72,1.45a.44.44,0,0,1,0,.44.43.43,0,0,1-.38.21h-1a.41.41,0,0,1-.38-.21A.44.44,0,0,1,35.53,30.35Z"/></g></svg>