<?xml version="1.0" ?><svg viewBox="0 0 64 64" xmlns="http://www.w3.org/2000/svg"><defs><style>.cls-1{fill:#e0e9ee;}.cls-2{fill:#d0e1e8;}.cls-3{fill:#748a95;}.cls-4{fill:#617880;}.cls-5{fill:#f0f4f7;}.cls-6{fill:#172335;}</style></defs><g id="Skeleton"><path class="cls-1" d="M43.29,43.19A17,17,0,0,1,48,53.73,2.17,2.17,0,0,1,45.8,56H18.2A2.17,2.17,0,0,1,16,53.73a17,17,0,0,1,4.74-10.54Z" id="path81477-5"/><path class="cls-2" d="M39.29,43.2A16.94,16.94,0,0,1,44,53.73,2.17,2.17,0,0,1,41.8,56h4A2.17,2.17,0,0,0,48,53.73,16.94,16.94,0,0,0,43.29,43.2Z" id="path148044"/><path class="cls-3" d="M41.64,33a9,9,0,0,1,3.75,7c0,3.25-4.55,4.35-9.92,7.05a6.62,6.62,0,0,1-6.94,0c-5.37-2.7-9.92-3.8-9.92-7.05a9,9,0,0,1,3.75-7Z" id="path56511-8-2"/><path class="cls-4" d="M37.64,33a9,9,0,0,1,3.75,7c0,3.25-4.55,4.35-9.92,7.05a12.48,12.48,0,0,1-1.47.63A6.44,6.44,0,0,0,35.47,47c5.37-2.7,9.92-3.8,9.92-7.05a9,9,0,0,0-3.75-7Z" id="path145969"/><path class="cls-5" d="M42.23,29a1.87,1.87,0,0,1,.7,3.67l-3.36.9v3.4a2.42,2.42,0,0,1-2.43,2.43H26.86a2.42,2.42,0,0,1-2.43-2.43v-3.4l-3.36-.9A1.87,1.87,0,0,1,21.8,29a13,13,0,1,1,20.43,0Z" id="path81748-5-9"/><path class="cls-2" d="M39.09,21.4l-4.26.25a1.33,1.33,0,0,0-1.22,1,3.19,3.19,0,0,0,0,.54,3.49,3.49,0,0,0,7,0,3.6,3.6,0,0,0-.13-.93A1.37,1.37,0,0,0,39.09,21.4Z" id="path182529-9-2-9-4"/><path class="cls-2" d="M23.59,22.22a3.6,3.6,0,0,0-.13.93,3.49,3.49,0,0,0,7,0,3.12,3.12,0,0,0,0-.54,1.33,1.33,0,0,0-1.22-1l-4.26-.25A1.37,1.37,0,0,0,23.59,22.22Z" id="path172191-2-1-2-7"/><path class="cls-2" d="M33.34,29.42l.91,1.83a1.84,1.84,0,0,1-1.65,2.67H31.4a1.84,1.84,0,0,1-1.65-2.67l.91-1.83A1.49,1.49,0,0,1,33.34,29.42Z" id="rect174019-2-0-2-8"/><path class="cls-1" d="M32,8a14.17,14.17,0,0,0-1.6.1A13,13,0,0,1,39,29a1.87,1.87,0,0,1,.7,3.67l-3.37.9v3.4a2.43,2.43,0,0,1-2.43,2.43h3.2a2.43,2.43,0,0,0,2.43-2.43v-3.4l3.36-.9a1.87,1.87,0,0,0-.7-3.67A13,13,0,0,0,32,8Z" id="path152770"/><path class="cls-6" d="M37.05,27.63a4.49,4.49,0,0,0,4.49-4.48,4.4,4.4,0,0,0-.17-1.2A2.34,2.34,0,0,0,39,20.41h0l-4.25.24a2.36,2.36,0,0,0-2.16,1.79,5.65,5.65,0,0,0,0,.71A4.49,4.49,0,0,0,37.05,27.63Zm-2.47-4.81a.54.54,0,0,1,.31-.18l4.25-.24a1.67,1.67,0,0,1,.31.09,2.84,2.84,0,0,1,.09.66,2.49,2.49,0,0,1-5,0C34.57,23,34.58,22.89,34.58,22.82Z"/><path class="cls-6" d="M27,27.63a4.49,4.49,0,0,0,4.48-4.49,5.49,5.49,0,0,0-.05-.7,2.37,2.37,0,0,0-2.16-1.79L25,20.41A2.28,2.28,0,0,0,22.63,22a4.4,4.4,0,0,0-.17,1.2A4.49,4.49,0,0,0,27,27.63Zm-2.4-5.11a.55.55,0,0,1,.31-.12l4.25.24a1,1,0,0,1,.29.12,2.53,2.53,0,0,1,0,.38,2.49,2.49,0,1,1-5,0A2.28,2.28,0,0,1,24.55,22.52Z"/><path class="cls-6" d="M29.77,29l-.92,1.83a2.85,2.85,0,0,0,2.55,4.12h1.2a2.85,2.85,0,0,0,2.55-4.12L34.23,29A2.48,2.48,0,0,0,32,27.59h0A2.48,2.48,0,0,0,29.77,29Zm.87,2.73.92-1.84a.49.49,0,0,1,.88,0h0l.92,1.84a.81.81,0,0,1,0,.82.82.82,0,0,1-.72.4H31.4a.82.82,0,0,1-.72-.4A.81.81,0,0,1,30.64,31.7Z"/><path class="cls-6" d="M15.76,55.93A3.31,3.31,0,0,0,18.2,57H45.8a3.31,3.31,0,0,0,2.44-1.07A3,3,0,0,0,49,53.64a18.4,18.4,0,0,0-4.26-10.32A4.26,4.26,0,0,0,46.39,40a9.51,9.51,0,0,0-2.74-6.56,2.87,2.87,0,0,0,.24-5.09A14,14,0,1,0,18,21a14,14,0,0,0,2.1,7.34,2.87,2.87,0,0,0,.22,5.1A9.51,9.51,0,0,0,17.61,40a4.26,4.26,0,0,0,1.62,3.34A18.4,18.4,0,0,0,15,53.64,3,3,0,0,0,15.76,55.93ZM20,21a12,12,0,1,1,21.42,7.38,1,1,0,0,0-.09,1.1,1,1,0,0,0,1,.5.87.87,0,0,1,.94.64.88.88,0,0,1-.62,1.08l-3.36.9a1,1,0,0,0-.74,1v3.4a1.43,1.43,0,0,1-1.43,1.43H26.86a1.43,1.43,0,0,1-1.43-1.43v-3.4a1,1,0,0,0-.74-1l-3.36-.9a.88.88,0,0,1-.62-1.08.87.87,0,0,1,.84-.64h.11a1,1,0,0,0,1-.5,1,1,0,0,0-.08-1.11A12.05,12.05,0,0,1,20,21Zm2.55,13.1.85.23v2.63a3.44,3.44,0,0,0,3.43,3.43H37.14a3.44,3.44,0,0,0,3.43-3.43V34.3l.85-.23a8,8,0,0,1,3,5.91c0,1.78-2.11,2.82-5.86,4.51-1.07.48-2.28,1-3.51,1.65a8.84,8.84,0,0,1-2,.76V43.51a1,1,0,1,0-2,0V46.9a8.84,8.84,0,0,1-2-.76c-1.23-.62-2.44-1.17-3.51-1.65-3.75-1.69-5.86-2.73-5.86-4.51A8,8,0,0,1,22.58,34.07Zm-1.7,10.4c1.08.63,2.37,1.21,3.76,1.84,1.11.5,2.25,1,3.44,1.61a7.59,7.59,0,0,0,7.84,0c1.19-.6,2.33-1.11,3.44-1.61,1.39-.63,2.68-1.21,3.76-1.84A16.23,16.23,0,0,1,47,53.82a1,1,0,0,1-.27.76,1.33,1.33,0,0,1-1,.42H33V51.67a1,1,0,0,0-2,0V55H18.2a1.33,1.33,0,0,1-1-.42,1,1,0,0,1-.27-.76A16.26,16.26,0,0,1,20.88,44.47Z"/></g></svg>