<?xml version="1.0" ?><svg viewBox="0 0 64 64" xmlns="http://www.w3.org/2000/svg"><defs><style>.cls-1{fill:#f0f4f7;}.cls-2{fill:#e0e9ee;}.cls-3{fill:#d0e1e8;}.cls-4{fill:#617880;}.cls-5{fill:#748a95;}.cls-6{fill:#dd5891;}.cls-7{fill:#172335;}</style></defs><g data-name="Grim Skull" id="Grim_Skull"><path class="cls-1" d="M19.22,41.06c-4.94,4.95-5.48,7.68-5.53,12.29A2.65,2.65,0,0,0,16.34,56H47.66a2.65,2.65,0,0,0,2.65-2.65c-.05-4.61-.59-7.34-5.53-12.29Z" id="path251139-9"/><path class="cls-2" d="M40.78,41.06c4.94,4.95,5.48,7.68,5.53,12.29A2.65,2.65,0,0,1,43.66,56h4a2.65,2.65,0,0,0,2.65-2.65c-.05-4.61-.59-7.34-5.53-12.29Z" id="path154612"/><path class="cls-1" d="M17.84,35.73V22.16a14.16,14.16,0,1,1,28.32,0V35.73Z" id="path264010-8"/><path class="cls-2" d="M21.4,23.86c-1.12,3.55-3.56,4.95-3.56,11.87a11.14,11.14,0,0,0,1.38,5.33c2,4,6.5,6.35,10.44,9a4.35,4.35,0,0,0,4.68,0c3.94-2.7,8.42-5,10.44-9a11.14,11.14,0,0,0,1.38-5.33c0-6.92-2.44-8.32-3.56-11.87Z" id="path248397-6"/><path class="cls-3" d="M22,22.17a22.3,22.3,0,0,0-1.46,7.18c0,6.35,5.16,9.53,11.51,9.53s11.51-3.18,11.51-9.53a22.3,22.3,0,0,0-1.46-7.18Z" id="path127678"/><path class="cls-4" d="M29.87,31.67v7.08a17.51,17.51,0,0,0,4.26,0V31.67Z" id="rect262797-9"/><path class="cls-5" d="M32,11.29c-4.32,0-8.09,5.42-10,10.88a10.05,10.05,0,0,0,3.32,6.71,4.16,4.16,0,0,1,1.37,2.73v.69a1.82,1.82,0,0,0,1.82,1.83h7.07a1.82,1.82,0,0,0,1.83-1.83v-.69a4.16,4.16,0,0,1,1.37-2.73,10.05,10.05,0,0,0,3.32-6.71C40.09,16.7,36.32,11.29,32,11.29Z" id="path262375-7"/><path class="cls-4" d="M32,11.29a5.82,5.82,0,0,0-1.32.17c3.76,1,7,5.81,8.72,10.71a10.05,10.05,0,0,1-3.32,6.71,4.21,4.21,0,0,0-1.37,2.73v.69a1.82,1.82,0,0,1-1.83,1.83h2.65a1.82,1.82,0,0,0,1.83-1.83v-.69a4.16,4.16,0,0,1,1.37-2.73,10.05,10.05,0,0,0,3.32-6.71C40.09,16.7,36.32,11.29,32,11.29Z" id="path148941"/><path class="cls-6" d="M30.36,21.92a2.47,2.47,0,1,1-2.46-2.47A2.46,2.46,0,0,1,30.36,21.92Z" id="path263495-2"/><path class="cls-6" d="M38.57,21.92a2.47,2.47,0,1,1-2.47-2.47A2.47,2.47,0,0,1,38.57,21.92Z" id="path263600-2"/><path class="cls-7" d="M27.9,18.45a3.47,3.47,0,1,0,3.47,3.47A3.48,3.48,0,0,0,27.9,18.45Zm0,4.93a1.47,1.47,0,1,1,1.47-1.46A1.46,1.46,0,0,1,27.9,23.38Z"/><path class="cls-7" d="M32.63,21.92a3.47,3.47,0,1,0,3.47-3.47A3.47,3.47,0,0,0,32.63,21.92Zm4.94,0a1.47,1.47,0,1,1-1.47-1.47A1.46,1.46,0,0,1,37.57,21.92Z"/><path class="cls-7" d="M32,24.78a1,1,0,0,0-1,1v1.56a1,1,0,1,0,2,0V25.78A1,1,0,0,0,32,24.78Z"/><path class="cls-7" d="M13.74,55.91A3.64,3.64,0,0,0,16.34,57H47.66a3.64,3.64,0,0,0,2.6-1.09,3.55,3.55,0,0,0,1.05-2.57c-.06-4.93-.83-7.84-5.34-12.48a12.11,12.11,0,0,0,1.19-5.13V22.16a15.16,15.16,0,1,0-30.32,0V35.73A12.07,12.07,0,0,0,18,40.86c-4.51,4.64-5.28,7.55-5.34,12.48A3.55,3.55,0,0,0,13.74,55.91Zm6.37-15.32a10.18,10.18,0,0,1-1.27-4.85h0v-.06a17.26,17.26,0,0,1,.71-5.25c.52,5.78,5.29,9.46,12.45,9.46s11.93-3.68,12.45-9.45a17.14,17.14,0,0,1,.71,5.24v.06h0a10.22,10.22,0,0,1-1.28,4.87c-1.54,3.06-4.66,5.1-8,7.26-.72.47-1.44.94-2.14,1.42a3.41,3.41,0,0,1-3.54,0c-.7-.48-1.42-.95-2.14-1.42C24.79,45.71,21.66,43.67,20.11,40.59Zm1.78-14.7a10.94,10.94,0,0,0,2.72,3.73,3.22,3.22,0,0,1,1,2v.69a2.83,2.83,0,0,0,2.83,2.82h.4v2.45c-3.95-.8-7.37-3.23-7.37-8.22A17.55,17.55,0,0,1,21.89,25.89Zm9,9.23h2.26v2.72c-.37,0-.75,0-1.13,0s-.76,0-1.13,0Zm4.26,0h.4a2.83,2.83,0,0,0,2.83-2.82v-.69a3.22,3.22,0,0,1,1-2,10.94,10.94,0,0,0,2.72-3.73,17.6,17.6,0,0,1,.4,3.46c0,5-3.43,7.42-7.38,8.22Zm2.93-7a5.14,5.14,0,0,0-1.7,3.48v.69a.83.83,0,0,1-.83.82H28.47a.83.83,0,0,1-.83-.82v-.69a5.14,5.14,0,0,0-1.7-3.48,9.07,9.07,0,0,1-3-5.91c1.9-5.11,5.39-9.93,9-9.93s7.14,4.82,9,9.93A9.07,9.07,0,0,1,38.06,28.13Zm-19.22-6a13.16,13.16,0,1,1,26.32,0V27c-.12-.22-.23-.44-.35-.65a15.92,15.92,0,0,1-1.27-2.82C41.91,18,37.72,10.29,32,10.29s-9.76,7.59-11.56,13.27a15.58,15.58,0,0,1-1.25,2.78c-.12.21-.23.43-.35.65ZM19,42.7c1.91,2.88,5,4.9,8,6.85.71.46,1.41.92,2.1,1.39a5.43,5.43,0,0,0,5.8,0l2.1-1.4c3-1.95,6.07-4,8-6.84,3.84,4.09,4.29,6.5,4.34,10.66A1.64,1.64,0,0,1,47.66,55H16.34a1.64,1.64,0,0,1-1.18-.49,1.61,1.61,0,0,1-.47-1.15C14.74,49.2,15.19,46.79,19,42.7Z"/></g></svg>